<?xml version="1.0" encoding="utf-8"?>
<!-- Generator: Adobe Illustrator 25.2.3, SVG Export Plug-In . SVG Version: 6.00 Build 0)  -->
<svg version="1.1" id="Ebene_1" xmlns="http://www.w3.org/2000/svg" xmlns:xlink="http://www.w3.org/1999/xlink" x="0px" y="0px"
	 viewBox="0 0 258 120" style="enable-background:new 0 0 258 120;" xml:space="preserve">
<style type="text/css">
	.st0{fill-rule:evenodd;clip-rule:evenodd;fill:#1F3A60;}
	.st1{fill-rule:evenodd;clip-rule:evenodd;fill:#1F3A60;fill-opacity:0;}
	.st2{fill:#1F3A60;}
</style>
<g id="Ebene_1_1_">
	<g>
		<path class="st0" d="M37.1,0.7c2.1-0.1,5.1,0.4,7.5,0.7c4.4,0.5,8,1.6,11.7,3.8c1.8,1.1,3.8,1.9,5.6,3.1c1.4,1,2.8,2.3,4.2,3.6
			c2.7,2.3,4.9,5.4,6.2,8.9c0.6,1.6,2.4,7.9-0.9,8.4c-1.9,0.3-3.4-2.9-4.3-4.2c-2.1-3.1-4.4-6-7.1-8.5c-1.7-1.5-4-2.6-6.5-3.6
			c-3.7-1.5-9.5-2.5-15.6-1.7c-1.2,0.2-2.6,0.6-3.8,0.9c-3.5,0.8-6.6,2.3-9.4,4.5c-3.5,2.7-7.1,5.8-9.6,9.8
			c-3.8,6-6.8,12.4-7.8,20.4C6.9,50,6.6,54.3,7,57.5c0.5,3.8,2.1,7.7,3.7,11.5c1.5,3.5,3.4,7,5.6,9.8c2.5,3.1,4.8,6.1,7.4,8.9
			c2.6,2.9,5.4,5.5,8.2,8c3,2.7,6.1,4.7,9.2,7c3,2.2,6.6,4.1,10.1,5.9c4.6,2.3,10.7,4.9,16.7,6.6c1.3,0.4,1.8,0.5,2.7,1
			c2.7,1.3,2.3,3.6-1.7,3.3c-2-0.1-4.1-0.9-6.3-1.8s-4.6-1.6-6.8-2.5c-3.6-1.4-7.8-3.9-11.5-6.2C37,104.3,30,98.8,24.4,92.5
			c-1.5-1.7-2.8-3.4-4.2-5c-1.5-1.7-3-3.2-4.3-4.9c-2.7-3.4-4.8-7.2-7-11.1c-2.1-3.9-3.4-8.1-5-12.5s-2.7-9.1-2.8-14
			c-0.2-6.5,1.2-11.8,2.8-17c1.5-5.1,4.1-9.6,6.8-13.7c2.9-4.4,5.9-7.8,10.9-10.2C26.3,1.5,31,1,37.1,0.7z"/>
		<path class="st0" d="M77.4,13.5c7.7,0,15.5,0,22.7,0c7.6,0,13.9,0.9,19.2,3.6c5.1,2.6,8.6,6.3,11.5,11.2c2.9,5,4.7,10.5,4.7,18
			c0,14.7-6.6,24.1-16.3,29.2c-5.2,2.8-11.5,3.6-19.2,3.6c-7.3,0-15.1,0-22.7,0c0-21.8,0-43.5,0-65.3C77.3,13.7,77.3,13.5,77.4,13.5
			z M97.4,28.7c0,11.8,0,23.5,0,35.3c3.6,0.1,7.1,0.2,9.5-1c9.9-5.1,10.3-28.2,0.7-33.5c-2.4-1.3-6.4-1.2-10-1.1
			C97.3,28.4,97.3,28.6,97.4,28.7z"/>
		<path class="st0" d="M144.2,13.5c6.6,0,13.3,0,19.9,0c0,8.1,0,16.1,0,24.2c5.1,0,10.2,0,15.3,0c0.3-7.8,0-16.1,0.1-24.2
			c6.7,0,13.4,0,20,0c0,21.9,0,43.7,0,65.6c-6.7,0-13.4,0-20,0c0-8.5,0-17,0-25.5c-5.1,0-10.2,0-15.3,0c-0.3,8.3,0,17-0.1,25.5
			c-6.7,0-13.4,0-20,0c0-21.8,0-43.5,0-65.3C144.1,13.7,144.1,13.5,144.2,13.5z"/>
		<path class="st0" d="M209.3,13.5c16.3,0,32.5,0,48.8,0c0,4.1,0,7.7,0,11.8c0,1.3,0.2,2.7,0,3.9c-0.3,1.2-2.1,3.1-3.1,4.5
			c-7.6,10.1-15.2,19.9-22.6,30c8.6,0,17.2,0,25.7,0c0,5.2,0,10.3,0,15.5c-17,0-34.1,0-51.1,0c0-2,0-4.1,0-6.2c0-2-0.4-4.3,0-6.1
			c0.3-1.2,2.7-3.8,3.6-4.9c8.6-11.1,17-22.1,25.4-33.2c-8.9,0-17.8,0-26.7,0c0-4.9,0-9.9,0-14.8C209.2,13.7,209.2,13.5,209.3,13.5z
			"/>
		<path class="st1" d="M97.5,28.4c3.7-0.1,7.6-0.2,10,1.1c9.6,5.3,9.3,28.4-0.7,33.5c-2.4,1.2-5.9,1.1-9.5,1c0-11.8,0-23.5,0-35.3
			C97.3,28.6,97.3,28.4,97.5,28.4z"/>
		<path class="st0" d="M49,43.1c-3,0.1-4.2,2.8-6.5,4.2c-0.6,0.9-1.5,1.9-2.2,3c-2,3.2-4.2,7-4.3,11.7c0,1.4,0.1,2.6,0.7,3.7
			c2.3,4.2,9,3.2,12.1,6c1.4,1.3,2.3,4.2,4.2,5c0.8,0.3,2.1,0.1,2.7-0.7c1-1.5,0.3-4.4,0.2-7.5c-0.2-4.4,0.6-8.6-0.8-10.8
			c-2.2-1.3-5.2,4.5-8,0.8c-0.7-3,2.2-2.6,3.9-3.7c2.5-1.6,3.5-4.5,6.5-4c2,0.4,3.1,3,3.2,5c0.4,4.3-0.8,8.4-0.7,12.1
			c0.1,3.5,1.7,5.8,2.5,8.1c0.6,2,1,4.2,1,6.6c0,2-0.7,3.9-3.1,4c-2.5,0.1-5.3-1.3-7-2.7c-1-0.8-1.7-1.6-2.5-2.6
			c-0.7-0.9-1.5-1.9-2.3-2.7c-2.8-2.4-6.9-2.2-9.9-4c-2.7-1.6-5.4-4.6-6.3-8c-0.8-2.7-1.6-5.5-1.4-8.2c0.3-4.5,2.5-8.4,4.7-11.2
			c2.6-3.4,5.6-6.5,9.2-9.1c2.4-1.7,6.5-3.5,8-6.1c0.8-1.4,0.5-3.5-0.3-4.9c-1.6-2.7-4.9-4.1-7.9-4.3c-0.5,0-1,0-1.4,0
			c-7.9,0.5-15.1,5.6-19,11.8c-2.2,3.4-3.4,7.1-4.6,10.7C18,50.4,17,57.4,19.4,61.6c1,1.8,3.3,3.9,2.3,6.1c-1.3,3.2-5.3,0.6-6.3-1.3
			c-0.8-1.4-1.1-4.1-1.4-5.9c-1-5.4-0.6-13.4,1.4-19.2c1.4-3.8,2.8-8.2,5.3-11.1c2.4-2.8,5.8-5.4,9.1-7.6c3.8-2.4,7.6-4.6,12.6-4.9
			c6.8-0.4,12.7,1,15.5,5.3c1.5,2.3,2.2,4.9,2.3,7.2c0.4,6.2-2.9,10.4-6,14c-1.7,2-2.5,4-2.9,6.6c-0.4,1.2-2.8,2.2-3.8,0.7
			c-0.3-0.5-0.3-2-0.2-2.7c0.1-0.8,0.7-2.1,1.2-2.9C48.9,45.1,49.9,44.3,49,43.1z"/>
	</g>
</g>
<g id="Ebene_2_1_">
	<g>
		<path class="st2" d="M259.8,95.7v5.4"/>
	</g>
	<g>
		<path class="st2" d="M86.9,100.4c-0.7,0.3-2.1,0.7-3.7,0.7c-1.8,0-3.3-0.5-4.5-1.6c-1-1-1.7-2.6-1.7-4.5c0-3.6,2.5-6.3,6.6-6.3
			c1.4,0,2.5,0.3,3,0.6l-0.4,1.3c-0.6-0.3-1.5-0.5-2.7-0.5c-3,0-4.9,1.8-4.9,4.9s1.9,4.9,4.7,4.9c1,0,1.7-0.1,2.1-0.3V96h-2.5v-1.3
			h4V100.4z"/>
		<path class="st2" d="M90.2,96.9c0,2.1,1.4,3,3,3c1.1,0,1.8-0.2,2.4-0.5l0.3,1.1c-0.6,0.3-1.5,0.5-2.9,0.5c-2.7,0-4.3-1.8-4.3-4.4
			s1.5-4.7,4.1-4.7c2.8,0,3.6,2.5,3.6,4.1c0,0.3,0,0.6-0.1,0.7h-6.1V96.9z M94.9,95.8c0-1-0.4-2.6-2.2-2.6c-1.6,0-2.3,1.5-2.4,2.6
			H94.9z"/>
		<path class="st2" d="M98.4,95c0-1,0-1.9-0.1-2.7h1.4l0.1,1.7h0.1c0.4-1.2,1.4-1.9,2.4-1.9c0.2,0,0.3,0,0.5,0.1v1.5
			c-0.2,0-0.3-0.1-0.5-0.1c-1.1,0-1.9,0.8-2.1,2c0,0.2-0.1,0.5-0.1,0.7v4.6h-1.6V95H98.4z"/>
		<path class="st2" d="M104.3,94.6c0-0.9,0-1.6-0.1-2.4h1.4l0.1,1.4h0.1c0.5-0.8,1.3-1.6,2.7-1.6c1.2,0,2.1,0.7,2.5,1.7l0,0
			c0.3-0.5,0.6-0.9,1-1.1c0.5-0.4,1.1-0.6,1.9-0.6c1.2,0,2.9,0.8,2.9,3.8v5.1h-1.5V96c0-1.7-0.6-2.7-1.9-2.7c-0.9,0-1.6,0.7-1.9,1.4
			c-0.1,0.2-0.1,0.5-0.1,0.8v5.4h-1.5v-5.2c0-1.4-0.6-2.4-1.8-2.4c-1,0-1.7,0.8-2,1.6c-0.1,0.2-0.1,0.5-0.1,0.8v5.3h-1.5v-6.4H104.3
			z"/>
		<path class="st2" d="M124.2,101l-0.1-1.1H124c-0.5,0.7-1.4,1.3-2.7,1.3c-1.8,0-2.7-1.2-2.7-2.5c0-2.1,1.9-3.3,5.2-3.2v-0.2
			c0-0.7-0.2-2-2-2c-0.8,0-1.7,0.3-2.3,0.6l-0.4-1c0.7-0.5,1.8-0.8,2.9-0.8c2.7,0,3.3,1.8,3.3,3.6V99c0,0.8,0,1.5,0.1,2.1h-1.2V101z
			 M123.9,96.5c-1.7,0-3.7,0.3-3.7,2c0,1,0.7,1.5,1.5,1.5c1.1,0,1.9-0.7,2.1-1.5c0.1-0.2,0.1-0.3,0.1-0.5V96.5z"/>
		<path class="st2" d="M128,94.6c0-0.9,0-1.6-0.1-2.4h1.4l0.1,1.4l0,0c0.4-0.8,1.4-1.6,2.9-1.6c1.2,0,3.1,0.7,3.1,3.7v5.2h-1.6v-5
			c0-1.4-0.5-2.6-2-2.6c-1,0-1.9,0.7-2.1,1.6c-0.1,0.2-0.1,0.5-0.1,0.7v5.2H128V94.6z"/>
		<path class="st2" d="M143.5,88.8v5.1h5.9v-5.1h1.6V101h-1.6v-5.7h-5.9v5.7h-1.6V88.8H143.5z"/>
		<path class="st2" d="M154.5,96.9c0,2.1,1.4,3,3,3c1.1,0,1.8-0.2,2.4-0.5l0.3,1.1c-0.6,0.3-1.5,0.5-2.9,0.5c-2.7,0-4.3-1.8-4.3-4.4
			s1.5-4.7,4.1-4.7c2.8,0,3.6,2.5,3.6,4.1c0,0.3,0,0.6-0.1,0.7h-6.1V96.9z M159.1,95.8c0-1-0.4-2.6-2.2-2.6c-1.6,0-2.3,1.5-2.4,2.6
			H159.1z"/>
		<path class="st2" d="M167.4,101l-0.1-1.1h-0.1c-0.5,0.7-1.4,1.3-2.7,1.3c-1.8,0-2.7-1.2-2.7-2.5c0-2.1,1.9-3.3,5.2-3.2v-0.2
			c0-0.7-0.2-2-2-2c-0.8,0-1.7,0.3-2.3,0.6l-0.4-1c0.7-0.5,1.8-0.8,2.9-0.8c2.7,0,3.3,1.8,3.3,3.6V99c0,0.8,0,1.5,0.1,2.1h-1.2V101z
			 M167.2,96.5c-1.7,0-3.7,0.3-3.7,2c0,1,0.7,1.5,1.5,1.5c1.1,0,1.9-0.7,2.1-1.5c0.1-0.2,0.1-0.3,0.1-0.5L167.2,96.5L167.2,96.5z"/>
		<path class="st2" d="M171.3,95c0-1,0-1.9-0.1-2.7h1.4l0.1,1.7h0.1c0.4-1.2,1.4-1.9,2.4-1.9c0.2,0,0.3,0,0.5,0.1v1.5
			c-0.2,0-0.3-0.1-0.5-0.1c-1.1,0-1.9,0.8-2.1,2c0,0.2-0.1,0.5-0.1,0.7v4.6h-1.6L171.3,95L171.3,95z"/>
		<path class="st2" d="M179,89.8c0,0.5-0.4,1-1,1s-1-0.4-1-1s0.4-1,1-1S179,89.2,179,89.8z M177.2,101v-8.7h1.6v8.7H177.2z"/>
		<path class="st2" d="M181.4,94.6c0-0.9,0-1.6-0.1-2.4h1.4l0.1,1.4l0,0c0.4-0.8,1.4-1.6,2.9-1.6c1.2,0,3.1,0.7,3.1,3.7v5.2h-1.6v-5
			c0-1.4-0.5-2.6-2-2.6c-1,0-1.9,0.7-2.1,1.6c-0.1,0.2-0.1,0.5-0.1,0.7v5.2h-1.6L181.4,94.6L181.4,94.6z"/>
		<path class="st2" d="M198.9,92.2c0,0.6-0.1,1.3-0.1,2.4v5.1c0,2-0.4,3.2-1.2,4s-2.1,1-3.2,1c-1,0-2.2-0.3-2.9-0.7l0.4-1.2
			c0.6,0.4,1.5,0.7,2.6,0.7c1.6,0,2.8-0.8,2.8-3v-1l0,0c-0.5,0.8-1.4,1.5-2.8,1.5c-2.2,0-3.7-1.8-3.7-4.2c0-3,1.9-4.6,3.9-4.6
			c1.5,0,2.3,0.8,2.7,1.5l0,0l0.1-1.3h1.4V92.2z M197.3,95.7c0-0.3,0-0.5-0.1-0.7c-0.3-0.9-1.1-1.7-2.2-1.7c-1.5,0-2.6,1.3-2.6,3.3
			c0,1.7,0.9,3.1,2.6,3.1c1,0,1.9-0.6,2.2-1.6c0.1-0.3,0.1-0.6,0.1-0.8V95.7z"/>
		<path class="st2" d="M213.8,100.6c-0.6,0.3-1.7,0.6-3.2,0.6c-3.4,0-6-2.2-6-6.1c0-3.8,2.6-6.4,6.3-6.4c1.5,0,2.5,0.3,2.9,0.5
			l-0.4,1.3c-0.6-0.3-1.4-0.5-2.4-0.5c-2.8,0-4.7,1.8-4.7,5c0,3,1.7,4.9,4.7,4.9c1,0,1.9-0.2,2.6-0.5L213.8,100.6z"/>
		<path class="st2" d="M216.4,96.9c0,2.1,1.4,3,3,3c1.1,0,1.8-0.2,2.4-0.5l0.3,1.1c-0.6,0.3-1.5,0.5-2.9,0.5c-2.7,0-4.3-1.8-4.3-4.4
			s1.5-4.7,4.1-4.7c2.8,0,3.6,2.5,3.6,4.1c0,0.3,0,0.6-0.1,0.7h-6.1V96.9z M221.1,95.8c0-1-0.4-2.6-2.2-2.6c-1.6,0-2.3,1.5-2.4,2.6
			H221.1z"/>
		<path class="st2" d="M224.6,94.6c0-0.9,0-1.6-0.1-2.4h1.4l0.1,1.4l0,0c0.4-0.8,1.4-1.6,2.9-1.6c1.2,0,3.1,0.7,3.1,3.7v5.2h-1.6v-5
			c0-1.4-0.5-2.6-2-2.6c-1,0-1.9,0.7-2.1,1.6c-0.1,0.2-0.1,0.5-0.1,0.7v5.2h-1.6L224.6,94.6L224.6,94.6z"/>
		<path class="st2" d="M236.4,89.7v2.5h2.3v1.2h-2.3v4.7c0,1.1,0.3,1.7,1.2,1.7c0.4,0,0.7-0.1,0.9-0.1l0.1,1.2
			c-0.3,0.1-0.8,0.2-1.4,0.2c-0.7,0-1.3-0.2-1.7-0.7c-0.5-0.5-0.6-1.2-0.6-2.3v-4.8h-1.4v-1.2h1.4V90L236.4,89.7z"/>
		<path class="st2" d="M241.2,96.9c0,2.1,1.4,3,3,3c1.1,0,1.8-0.2,2.4-0.5l0.3,1.1c-0.6,0.3-1.5,0.5-2.9,0.5c-2.7,0-4.3-1.8-4.3-4.4
			s1.5-4.7,4.1-4.7c2.8,0,3.6,2.5,3.6,4.1c0,0.3,0,0.6-0.1,0.7h-6.1V96.9z M245.9,95.8c0-1-0.4-2.6-2.2-2.6c-1.6,0-2.3,1.5-2.4,2.6
			H245.9z"/>
		<path class="st2" d="M249.3,95c0-1,0-1.9-0.1-2.7h1.4l0.1,1.7h0.1c0.4-1.2,1.4-1.9,2.4-1.9c0.2,0,0.3,0,0.4,0.1v1.5
			c-0.2,0-0.3-0.1-0.5-0.1c-1.1,0-1.9,0.8-2.1,2c0,0.2-0.1,0.5-0.1,0.7v4.6h-1.6L249.3,95L249.3,95z"/>
		<path class="st2" d="M79.3,106.8v5.1h5.9v-5.1h1.6V119h-1.6v-5.7h-5.9v5.7h-1.6v-12.1L79.3,106.8L79.3,106.8z"/>
		<path class="st2" d="M94.2,119l-0.1-1.1H94c-0.5,0.7-1.4,1.3-2.7,1.3c-1.8,0-2.7-1.2-2.7-2.5c0-2.1,1.9-3.3,5.2-3.2v-0.2
			c0-0.7-0.2-2-2-2c-0.8,0-1.7,0.3-2.3,0.6l-0.4-1c0.7-0.5,1.8-0.8,2.9-0.8c2.7,0,3.3,1.8,3.3,3.6v3.3c0,0.8,0,1.5,0.1,2.1h-1.2V119
			z M94,114.5c-1.7,0-3.7,0.3-3.7,2c0,1,0.7,1.5,1.5,1.5c1.1,0,1.9-0.7,2.1-1.5c0.1-0.2,0.1-0.3,0.1-0.5V114.5z"/>
		<path class="st2" d="M98.1,112.6c0-0.9,0-1.6-0.1-2.4h1.4l0.1,1.4l0,0c0.4-0.8,1.4-1.6,2.9-1.6c1.2,0,3.1,0.7,3.1,3.7v5.2h-1.6v-5
			c0-1.4-0.5-2.6-2-2.6c-1,0-1.9,0.7-2.1,1.6c-0.1,0.2-0.1,0.5-0.1,0.7v5.2h-1.6C98.1,118.8,98.1,112.6,98.1,112.6z"/>
		<path class="st2" d="M108,112.6c0-0.9,0-1.6-0.1-2.4h1.4l0.1,1.4l0,0c0.4-0.8,1.4-1.6,2.9-1.6c1.2,0,3.1,0.7,3.1,3.7v5.2h-1.6v-5
			c0-1.4-0.5-2.6-2-2.6c-1,0-1.9,0.7-2.1,1.6c-0.1,0.2-0.1,0.5-0.1,0.7v5.2H108V112.6z"/>
		<path class="st2" d="M125.9,114.5c0,3.2-2.2,4.6-4.3,4.6c-2.4,0-4.2-1.7-4.2-4.5c0-2.9,1.9-4.6,4.3-4.6
			C124.2,110,125.9,111.9,125.9,114.5z M119,114.6c0,1.9,1.1,3.3,2.6,3.3s2.6-1.4,2.6-3.4c0-1.5-0.7-3.3-2.6-3.3
			C119.8,111.2,119,113,119,114.6z"/>
		<path class="st2" d="M128.4,110.2l1.7,4.9c0.3,0.8,0.5,1.5,0.7,2.2h0.1c0.2-0.7,0.5-1.4,0.7-2.2l1.7-4.9h1.7l-3.4,8.7H130
			l-3.3-8.7H128.4z"/>
		<path class="st2" d="M137.2,114.9c0,2.1,1.4,3,3,3c1.1,0,1.8-0.2,2.4-0.5l0.3,1.1c-0.6,0.3-1.5,0.5-2.9,0.5
			c-2.7,0-4.3-1.8-4.3-4.4s1.5-4.7,4.1-4.7c2.8,0,3.6,2.5,3.6,4.1c0,0.3,0,0.6-0.1,0.7h-6.1V114.9z M141.8,113.8
			c0-1-0.4-2.6-2.2-2.6c-1.6,0-2.3,1.5-2.4,2.6H141.8z"/>
		<path class="st2" d="M145.3,113c0-1,0-1.9-0.1-2.7h1.4l0.1,1.7h0.1c0.4-1.2,1.4-1.9,2.4-1.9c0.2,0,0.3,0,0.4,0.1v1.5
			c-0.2,0-0.3-0.1-0.5-0.1c-1.1,0-1.9,0.8-2.1,2c0,0.2-0.1,0.5-0.1,0.7v4.6h-1.6L145.3,113L145.3,113z"/>
	</g>
</g>
</svg>
