<?xml version="1.0" encoding="utf-8"?>
<!-- Generator: Adobe Illustrator 21.1.0, SVG Export Plug-In . SVG Version: 6.00 Build 0)  -->
<svg xmlns="http://www.w3.org/2000/svg" id="Ebene_1" xmlns:xlink="http://www.w3.org/1999/xlink" viewBox="0 0 291 84" aria-labelledby="title">
<style type="text/css">
	.st0{fill:#00519E;}
	.st1{fill:#FFFFFF;}
</style>
<g>
	<rect x="92.6" class="st0" width="198.4" height="84"/>
	<rect class="st0" width="84" height="84"/>
	<g>
		<path class="st1" d="M107.9,25.3h8v-1.8h-5.8V10.1h-2.2V25.3z M125.4,23.6c-0.5,0.2-1.1,0.4-2,0.4c-2.9,0-3.8-2.7-3.8-4.7h6.1
			v-0.5c0-2.5-1.2-4.2-3.8-4.2c-1.3,0-4.3,0.5-4.3,5c0,4.1,2,6,5.2,6c1.1,0,1.8-0.2,2.6-0.4L125.4,23.6L125.4,23.6z M119.7,17.9
			c0-0.5,0.5-1.8,2.1-1.8c1.5,0,1.9,1.2,1.9,1.8H119.7z M128.9,25.3h2V14.8h-2V25.3z M128.7,12.3h2.4v-2.2h-2.4V12.3z M136.1,10.1
			h-2v10.8c0,1.3,0.1,4.6,4.1,4.6c3,0,4.2-2.1,4.2-5.4c0-2.7-0.7-5.6-3.6-5.6c-1.7,0-2.5,1.1-2.7,1.7V10.1z M136.1,20
			c0-1.4,0.6-3.9,2.2-3.9c1.6,0,1.9,2.5,1.9,4c0,1.9-0.4,3.9-2.2,3.9S136.1,21.6,136.1,20z M145.4,25.3h2v-4.4
			c0-2.1,1.1-4.3,2.8-4.3c1.4,0,1.4,1.1,1.4,3v5.7h2V18c0-1.3-0.4-3.5-2.8-3.5c-2.1,0-3,1.6-3.3,2.5v-2.2h-2L145.4,25.3L145.4,25.3z
			 M157.2,25.3h2V14.8h-2V25.3z M157,12.3h2.4v-2.2H157V12.3z M161.9,25.3h7.7v-1.5h-5.3l5.1-7.4v-1.5h-7.1v1.5h4.7l-5.1,7.4
			L161.9,25.3L161.9,25.3z"/>
		<path class="st1" d="M118,34.5h-2.2v10.3c0,1.1,0,3.4-3,3.4c-2.9,0-2.9-2.3-2.9-3.4V34.5h-2.2v10.7c0,3.3,2.2,4.7,5.1,4.7
			c3,0,5.2-1.5,5.2-4.7V34.5z M121,49.7h2v-4.4c0-2.1,1.1-4.3,2.8-4.3c1.4,0,1.4,1.1,1.4,3v5.7h2v-7.3c0-1.3-0.4-3.5-2.8-3.5
			c-2.1,0-3,1.6-3.3,2.5v-2.2h-2L121,49.7L121,49.7z M132.5,49.7h2V39.2h-2V49.7z M132.3,36.7h2.4v-2.2h-2.4V36.7z M140.8,49.7h2
			l3.6-10.5h-2.2l-2.4,7.6l-2.8-7.6h-2.2L140.8,49.7z M155.4,48.1c-0.5,0.2-1.1,0.4-2,0.4c-2.9,0-3.8-2.7-3.8-4.7h6.1v-0.5
			c0-2.5-1.2-4.2-3.8-4.2c-1.3,0-4.3,0.5-4.3,5c0,4.1,2,6,5.2,6c1.1,0,1.8-0.2,2.6-0.4V48.1z M149.7,42.4c0-0.5,0.5-1.8,2.1-1.8
			c1.5,0,1.9,1.2,1.9,1.8H149.7z M158.6,49.7h2v-4.4c0-3.2,1.5-4.1,3.3-4.1v-2.2c-2.1,0-2.9,1.5-3.2,2.4v-2.1h-2v10.4H158.6z
			 M169,43.2c-0.7-0.4-1.5-0.8-1.5-1.5c0-0.7,0.9-1.1,1.7-1.1c1.1,0,2.1,0.5,2.4,0.6v-1.8c-0.5-0.1-1.3-0.4-2.4-0.4
			c-2.2,0-3.7,1-3.7,2.9c0,1.5,1.1,2.2,2.1,2.8l1,0.6c0.7,0.5,1.7,0.9,1.7,1.7c0,1.1-1.2,1.3-2.1,1.3c-1.1,0-2.4-0.5-2.6-0.6v1.7
			c0.5,0.1,1.4,0.4,2.8,0.4c2.4,0,3.9-1,3.9-3.2c0-1.7-1.3-2.4-2.4-3.1L169,43.2z M174.9,49.7h2V39.2h-2V49.7z M174.7,36.7h2.4v-2.2
			h-2.4V36.7z M186.1,48.3c-0.3,0.1-0.7,0.2-1.1,0.2c-1.5,0-1.7-1.1-1.7-2v-5.6h2.9v-1.5h-2.9v-3.7l-2,1.2v2.5h-1.9v1.5h1.9v6.6
			c0,1.4,0.6,2.5,3.1,2.5c0.5,0,1.1,0,1.6-0.2L186.1,48.3L186.1,48.3z M188.6,37.1h2.7v-2.4h-2.7V37.1z M193.1,37.1h2.7v-2.4h-2.7
			V37.1z M193.8,49.7h2v-7.2c0-0.9,0-3.5-3.4-3.5c-2.9,0-3.9,1.5-3.9,3.1h2.1c0-0.8,0.5-1.6,1.7-1.6c0.7,0,1.4,0.3,1.6,1.3v1.8
			c-2.7,0-5.7,0.7-5.7,3.4c0,1.6,1,2.8,3,2.8c1.6,0,2.4-1,2.7-1.5L193.8,49.7z M193.8,45.1v0.6c0,1.2-1,2.8-2.4,2.8
			c-0.6,0-1.1-0.5-1.1-1.3c0-1.3,1.6-2,3.1-2L193.8,45.1L193.8,45.1z M204.7,48.3c-0.3,0.1-0.7,0.2-1.1,0.2c-1.5,0-1.7-1.1-1.7-2
			v-5.6h2.9v-1.5h-2.9v-3.7l-2,1.2v2.5H198v1.5h1.9v6.6c0,1.4,0.6,2.5,3.1,2.5c0.5,0,1.1,0,1.6-0.2L204.7,48.3L204.7,48.3z"/>
		<path class="st1" d="M127,74.1h2v-7.2c0-0.9,0-3.5-3.4-3.5c-2.9,0-3.9,1.5-3.9,3.1h2.1c0-0.8,0.5-1.6,1.7-1.6
			c0.7,0,1.4,0.3,1.6,1.3v1.9c-2.7,0-5.7,0.7-5.7,3.4c0,1.6,1,2.8,3,2.8c1.6,0,2.4-1,2.7-1.5L127,74.1z M127,69.4V70
			c0,1.2-1,2.8-2.4,2.8c-0.6,0-1.1-0.5-1.1-1.3c0-1.3,1.6-2,3.1-2L127,69.4L127,69.4z M132.3,74.1h2v-4.4c0-2.1,1.1-4.3,2.8-4.3
			c1.4,0,1.4,1.1,1.4,3v5.7h2v-7.3c0-1.3-0.4-3.5-2.8-3.5c-2.1,0-3,1.6-3.3,2.5v-2.2h-2L132.3,74.1L132.3,74.1z M144.2,74.1h2v-4.4
			c0-2.1,1.1-4.3,2.8-4.3c1.4,0,1.4,1.1,1.4,3v5.7h2v-7.3c0-1.3-0.4-3.5-2.8-3.5c-2.1,0-3,1.6-3.3,2.5v-2.2h-2L144.2,74.1
			L144.2,74.1z M159.7,74.3c3.1,0,4.6-2.2,4.6-5.5c0-3.3-1.5-5.5-4.6-5.5c-3.2,0-4.6,2.1-4.6,5.5C155,72.2,156.5,74.3,159.7,74.3z
			 M157.2,68.9c0-1.7,0.3-3.9,2.4-3.9c2.1,0,2.4,2.2,2.4,3.9c0,1.7-0.3,3.9-2.4,3.9C157.5,72.8,157.2,70.5,157.2,68.9z M169.2,74.1
			h2l3.6-10.5h-2.1l-2.4,7.6l-2.8-7.6h-2.2L169.2,74.1z M184,72.4c-0.5,0.2-1.1,0.4-2,0.4c-2.9,0-3.8-2.7-3.8-4.7h6.1v-0.5
			c0-2.5-1.2-4.2-3.8-4.2c-1.3,0-4.3,0.5-4.3,5c0,4.1,2,6,5.2,6c1.1,0,1.8-0.2,2.6-0.4V72.4z M178.3,66.8c0-0.5,0.5-1.8,2.1-1.8
			c1.5,0,1.9,1.2,1.9,1.8H178.3z M187.2,74.1h2v-4.4c0-3.2,1.5-4.1,3.3-4.1v-2.2c-2.1,0-2.9,1.5-3.2,2.4v-2.1h-2v10.4H187.2z
			 M107.9,74.1h2.2v-7h6v7h2.2V58.9h-2.2v6.4h-6v-6.4h-2.2V74.1z"/>
	</g>
	<path class="st1" d="M25.5,38.4c0,0,0.1-1.3,1.2-1.2c0.4,0,0.5,0.4,0.6,0.8c0.5,0.9,0.3,1.7,0.3,1.7s-0.1,0.9-1,1.5
		c0,0-0.3,0.3,0.1,0.8c0.4,0.6,0.6,1.1,0.5,1.7c-0.1,0.6-0.4,0.6-0.8,0.6c-0.5,0-0.4,1.1-0.4,1.1h0.4c0,0,0.4-0.5,0.9-0.5
		c0.5,0,0.4,1.1,0.4,1.1v2.1c0.1,0.4-0.4,0.6-0.4,0.9c0,0.3,0.2,2-0.8,2c-0.9,0-1.4-0.6-1.4-1.5c0-0.6,0-1.3,0-1.3s0.1-0.4-0.2-0.4
		c-0.1,0-0.2-0.2-0.3-0.4c0-0.1-0.2-0.3-0.2-0.5v-1c0,0-0.2-0.2-0.2-0.7c0-0.5,0.3-0.4,0.3-0.7c0-0.4,0-1.9,0-1.9s0-0.6,0.3-0.6
		c0-0.4,0.3-0.6,0.6-0.6c0,0,0.1-0.2,0-0.4c-0.1-0.2-0.1,0-0.1-0.6c0-0.6-0.1-0.7-0.2-1C25.1,38.9,25.5,38.4,25.5,38.4z M42.8,37.9
		c0.7-0.3,2.5-1.4,2.9-1c0.2,0.2,0.6,0.7,0.6,1.3c0.1,0.9-0.3,1.9-1.5,2.2c0,0-0.3,0.5-1,0.8c-0.4,0.1-0.9,1.3-0.9,1.3
		s-0.4,0.6-0.5,1.4c0,0.3,0,0.6,0.1,0.9c0.2,0.5,0.5,1.1,1,1.3c0.7,0.3,1.2-0.1,1.7-0.4s1-0.7,1.4-0.7c0.8,0,1.8,0,1.8-1
		c0-1-0.2-1.6,0.4-2.3c0,0,0-1.6,0.1-1.6c0.2-0.3,0.6-0.3,0.6-0.9c0-0.5-0.2-1-0.9-1.1c-0.2,0-0.6-0.6-0.6-0.7
		c-0.4-0.2-0.4-0.6-0.4-0.6s0-0.6,1.3-0.4s1.4,1.3,1.4,1.3s0.3,0.8,0.1,1.3c-0.2,0.5-0.3,0.5-0.2,0.9c0.1,0.4,0.2,0.9,0.1,1.3
		c-0.1,0.4-0.3,0.5-0.3,0.8c0,0.3,0.5,0.6,0.4,1.4c-0.1,0.9-0.9,1.2-0.9,2.2c0.1,1-0.4,1.5-1,1.7c-0.7,0.2-2.2,2.7-3.8,2.8
		c-1.6,0.1-2.3,0.2-4.3-1.5c-2.1-1.7-1.7-2.6-1.4-3.1c0.3-0.4,1.1-1.7,0.8-2.5c-0.4-0.8-0.2-1.1,0.1-1.5c0.4-0.4,1-0.7,1.2-1.6
		c0.1-0.5,0.6-0.7,0.9-1.4C41.9,38.1,42.3,38,42.8,37.9z M12.1,61.5c0,0,0.5-0.4,0.6-0.7c0.1-0.3,0.8-0.3,0.9,0.1
		c0,0.4,0.2,1.4,0.9,1.9c0.5,0.4,0.2,1.8,0,1.8s-0.6,0.3-0.5,1.5c0.1,1.3-0.5,2-0.5,2s-0.2,0.6,0.1,0.7c0.3,0.1,0.8,0.5,0.6,0.9
		c-0.2,0.4-0.8,0.9-0.6,1.6s0.3,0.7,0.9,0.7c0.6,0,1.5,0,1.5,0.9c0,0.6-1.8,2.7-3.2,3c0,0-0.4-0.2-0.7-0.3c-0.2-0.1-0.4,0.1-0.5-0.1
		c-0.7-0.6-0.7-1-0.7-2c0-0.5,0.1-1.2,0-1.7c0-0.4-0.2-0.6-0.3-0.8c-0.1-0.2,0.2-0.7,0.7-1.8c0.5-1.1,0.5-1.3,0.1-2.3
		c-0.4-1-0.2-0.8,0-1.7c0.1-0.9-0.2-1.6,0.2-2c0.4-0.5,0.1-1,0.3-1.2C11.9,61.8,12.1,61.5,12.1,61.5z M69.2,13.6
		c0,0-0.6-0.5,0.4-1.3c0.5-0.4,1.3-0.5,2.1,0.2c0.5,0.4,0.4,1.3,0.2,2.2c-0.6,0.8-0.6,0.7-0.6,1.3c0,0.5,0,0.8-0.1,1
		c-0.1,0.3-0.3,0.5-0.3,0.9c0,0.4,0.1,0.8-0.2,1.3c-0.3,0.2-0.5,0.4-0.5,0.7V21c0,0-0.4,0.6-0.4,0.8v2.6c0,0,0.3,0.4,0.4,0.8
		c0.1,0.6,0.3,0.6,0.4,0.7c0.1,0.2,0.3,0.4,0.3,0.8c0,0.4-0.3,0.6-0.5,0.8c-0.3,0.2-0.5,0.4-0.8,0.4c-1,0-1.5-0.7-1.5-0.9
		c-0.1-0.4-0.3-0.4-0.5-0.5c-0.1-0.1-0.3-0.4-0.3-1.1c0-0.7,0.1-1.3-0.2-1.6c-0.4-0.4-0.2-1.2,0-1.6c0.2-0.3,0.2-0.4,0.2-0.9
		c0.1-0.3,0.5-0.7,0.6-1.2c0-0.5-0.3-0.5-0.3-1.2c0-0.3,0-0.6,0.1-0.9c0.1-0.4,0.1-0.5,0.5-1.1c0.3-0.6,0.7-0.7,1.2-1
		c0,0,0-0.6-0.1-1.2C69.3,14.1,69.3,13.7,69.2,13.6C69.2,13.7,69.2,13.6,69.2,13.6z M55.3,10.5c0,0,0.2-0.5,0.6-0.4
		c0.4,0.1,0.4,0.1,1.2,0.6c0.9,0.5,1,0.4,1,0.8c0,0.4-0.3,0.7-0.6,0.9c-0.3,0.2-0.8,0.3-0.9,0.7c-0.1,0.4-0.3,0.8-0.7,0.8
		s-0.5-0.4-0.4-0.7c0.1-0.3,0.5-0.5,0.4-1.1c-0.1-0.6,0-0.8-0.3-0.9c-0.3-0.2-0.4-0.3-0.4-0.4C55.2,10.5,55.3,10.5,55.3,10.5z
		 M55.5,18.1c0,0,0.4-0.5,1-0.1c0.6,0.3,0.5,0.9,0.2,1.3c-0.3,0.4-0.5,0.8-0.5,1.3c0.1,0.5,0.2,1.5-0.3,1.6
		c-0.4,0.1-0.5-0.9-0.4-1.2c0.1-0.3,0.4-0.3,0.4-0.8c-0.1-0.6-0.3-0.2-0.4-0.6c-0.1-0.5-0.1-0.5-0.2-0.8
		C55.2,18.4,55.5,18.1,55.5,18.1z M55.1,24.8c0,0,0-0.7,0.6-0.5c0.6,0.2,0.4,0.8,0.6,1c0.2,0.2,0.9,1.2,0.4,1.5
		c-0.4,0.3-0.9-0.3-0.9-0.5c0-0.2-0.1-0.6-0.3-0.7c-0.2-0.1-0.4-0.3-0.4-0.5V24.8z M55.1,27.5c0,0-0.1-1,0.5-0.9
		c0,0,0.2,0.1,0.2,0.5s-0.1,0.4,0.2,0.7c0.3,0.3,0.1,0.5,0.3,0.7c0.2,0.1,0.7,0.6,0.7,1s-0.4,0.6-0.4,0.9c0,0.3-0.4,0.5-0.4,0.9
		s0.1,0.4,0.2,0.6c0.1,0.3,0.2,0.7-0.2,1c-0.4,0.3-0.8,0.9-0.8,1.1c0,0.2-0.1,0.7-0.3,0.7c-0.1,0-0.5-0.3-0.5-0.6
		c0-0.3,0.4-0.4,0.4-1c0-0.6-0.1-1.5,0.1-1.7c0.2-0.1,0.6-0.4,0.6-1c0-0.6,0.1-0.5,0.2-0.7c0.1-0.1,0.1-0.4-0.2-0.4
		s-0.8-0.1-0.8-0.5C55.1,28.5,55.1,27.5,55.1,27.5z M54.4,36.6c0,0,0.1-0.5,0.4-0.4c0.3,0.1,0.4,0.1,0.4,0.2
		c0.1,0.1,0.3,0.4,0.1,0.6c-0.2,0.2-0.3,0.2-0.5,0.1C54.5,36.9,54.4,36.6,54.4,36.6z M54.2,39c0,0,0.1-0.8,0.8-1
		c0.7-0.2,0.9,1.8,0.9,1.8s0,0.5-0.3,0.6c-0.3,0.2,0-0.3-0.6-0.2c-0.5,0.1,0.2-0.8-0.3-0.9C54.2,39.2,54.1,39.1,54.2,39L54.2,39z
		 M53.9,44.3c0-0.4,0.1-0.6,0.3-0.8c0.1-0.3,0.2-0.5,0.5-0.6c0,0,0.3-0.1,0.5,0.5c0.1,0.5,0.4,0.5,0.5,1c0.2,1.4-0.2,0.1-0.2,1.5
		c0,0,0.1,0.3-0.5,0.8c0,0,0,1-0.3,1.4c0,0,0,0.2,0.2,0.6c0.2,0.3,0.6,1.3,0.3,1.8c-0.3,0.5-0.4,0.2-0.4,1c-0.1,0.8-0.1,2.3,0.1,2.5
		c0.2,0.2,0.2,0.9-0.1,1c-0.3,0.1-0.6,0-0.8-0.3c-0.2-0.3-0.4-0.2-0.3-0.9c0-0.7,0-2.1,0-2.1s0.2-0.6-0.1-0.8
		c-0.3-0.2-0.3-0.2-0.3-0.7c0-0.2,0-0.8,0-1.3s0-0.7,0.3-1.1c0.2-0.4,0.5-0.8,0.6-1.2c0.2-0.4,0.6-0.5,0.6-0.8
		c0-0.3-0.1-0.7-0.4-0.9C53.9,44.7,53.9,44.3,53.9,44.3z M53.6,56.5c0,0,0-0.6,0.4-0.7c0.5-0.1,0.9,0.1,0.8,0.4
		c-0.1,0.4-0.3,0.9-0.6,1c-0.4,0.1-0.3-0.4-0.5-0.5L53.6,56.5z M53.1,60.5c0-0.1,0-0.6,0.3-0.6c0.3,0.1,0.4,0.1,0.4,0.6
		c0,0.5-0.1,0.4,0.1,0.6c0.2,0.2,0.4,0.8,0.2,1.1c-0.2,0.4-0.6,0.5-0.5,1c0,0.5-0.2,1.1-0.4,1.1c-0.2,0-0.4-0.2-0.4-0.6
		s-0.2-0.6-0.2-0.7c-0.1-0.1,0-0.5,0.3-0.6s0.4-0.4,0.4-0.5c0-0.2,0-0.3,0.4-0.5c0.3-0.2-0.1-0.5-0.2-0.6
		C53.2,60.7,53.1,60.5,53.1,60.5z M51.6,66c0,0,0.1-0.7,0.5-0.7c0.4,0.1,0.5,0.4,0.5,0.8c-0.1,0.3-0.3,1-0.6,1s-0.5-0.7-0.5-0.8
		C51.5,66.1,51.6,66,51.6,66z M52.6,71.5c0,0-0.3-0.4,0-0.5c0.3-0.1,0.6-0.2,0.9,0c0.3,0.3,1.1,1,0.6,1.3
		C53.4,72.6,52.6,71.5,52.6,71.5z M23.5,65.9c0,0,0,0-0.4,0.2c-0.4,0.2-0.4,1-0.4,1.3s-0.4,0.1-0.5,0.7c-0.1,0.6,0.7,1.1,0.8,1.3
		c0.2,0.2,0.7,0.3,1.4,0.5c0.9,0.3,1.4,0.1,2.3-0.5c1.5-1,1.2-3,1.3-3.8c0-0.8,0.1-0.8-0.7-1.2c-0.8-0.4-0.5-0.3-1-0.8
		c-0.3-0.3-1.1-0.3-1.4,0c-0.3,0.3,0,1.1-0.2,1.6C24.4,65.5,23.5,65.9,23.5,65.9z M20.7,65.7c0,0-0.1-0.9,0.7-1.1
		c0.8-0.2,0.8-0.5,1-1.2c0.2-0.8,2.6-1.6,3.5-1.6c1.2,0,1.6,0.6,2.1,0.6c0.5,0,1.1-0.7,2-0.6c0.9,0.2,0.9,0.9,0.6,1.2
		c-0.1,0.1-0.1,1.1,0.2,1.2c0.2,0.2,0,1.1-0.2,1.4c-0.3,0.3-0.5,1.7-0.8,2.1v1.6c-0.2,0.4-0.7,0.6-1,1c-0.2,0.3,0,0.4-0.1,0.6
		c-0.4,1-1,1.4-1.7,1.4c-0.9,0-1.5-0.1-1.8,0.5c-0.3,0.6-0.5,0.7-1.4,0.8c-0.9,0-1.7,0.1-2-0.4c-0.3-0.5-1.1-0.5-1.1-0.5
		s-0.4-0.1-0.5-0.6c-0.1-0.5-0.3-0.8-0.4-0.9c-0.3-0.1-0.3-1.5-0.2-1.6c0.1-0.1,0.2-0.3,0.3-0.6c0.1-0.4,0.1-0.8,0.1-1.3
		c0,0,0.3-0.1,0.3-0.7s0-0.7,0.2-0.9L20.7,65.7z M43.2,65.4c0,0,0,0.1-0.3,0.4c-0.2,0.3-2,0.3-2.2,0.3c-0.2,0-0.8,0.1-1,1
		c0,0.3,0.3,0.9,0.5,1.3c0.4,0.5,0.9,0.9,1.4,0.9c0.7,0,0.5,0.1,0.9-0.2c0.2-0.1,0.4-0.2,0.8-0.4c0.4-0.2,0.7-0.3,0.9-0.6
		c0.4-0.6,0.2-1.4,0.5-1.5c0.3-0.2,0.5-0.7,0.5-0.7s0.2-0.7,0-1.1c-0.1-0.2-0.3-0.3-0.6-0.3C43.5,64.3,43.2,65.4,43.2,65.4z
		 M39.9,70.8c-0.1-0.2-0.2-0.2-0.2-0.2v0.2C39.9,70.9,39.9,70.8,39.9,70.8z M37.6,66c0-0.1,0-0.5,0-0.9c0.1-0.5,0.5-1.2,0.6-1.4
		c0.3-0.3,0.9-1.1,1.4-1.1c0.6,0,1.6-0.2,1.9-0.7c0.4-0.5,0.3-0.8,1-0.8s0.3,0.4,1.2,0.3c0.9-0.1,0.5-0.7,1-0.9
		c0.2-0.1,0.8-0.2,1.1-0.1c0.5,0.1,0.4,0.4,0.9,0.4c0.6,0,0.9,0,0.9,0.3c0,0.4-0.1,0.5-0.2,0.5c-0.1,0,0,1,0,1s0.1,0.7-0.3,1.1
		c-0.1,0.3-0.1,0.6-0.2,0.9v2.6c0,0-0.5,0.5-0.4,1.8c0,0.3-0.2,0.3-0.3,0.5c-0.1,0.3-0.3,0.5-0.5,1C45.2,71.7,44,72,44,72
		s-0.7,0.2-0.9,0.8c-0.2,0.6-0.5,0.7-1,0.8c-0.5,0-0.9,0-1,0.3c-0.2,0.2-0.3,0.1-0.5-0.1c-0.2-0.2-0.5-1-1.6-1c-0.5,0-1.1,0-1.2-0.4
		c-0.2-0.5-0.5-0.9-0.5-1c-0.1-0.1-0.1-0.7,0-1c0-0.2,0-0.4,0-0.6c0.1-0.3,0.5-0.6,0.7-0.7v-0.8c0,0-0.3-1.2-0.4-1.8
		C37.6,66.2,37.6,66,37.6,66z M45.6,18.4c-0.1,0.1-0.1,0.2-0.1,0.3c-0.1,0.1-0.1,0.2-0.1,0.3c0.3-0.1,0.3-0.2,0.3-0.3
		c0.1-0.1,0.1-0.3,0.1-0.3H45.6z M46.2,11.2c0,0,0.6-0.8,1.1-0.7c0.5,0.1,0.7,0.6,0.7,1.1c0,0.8-1.1,1.5-0.4,2.4
		c0,0.3,0.2,0.6,0.2,0.9c0,0-0.1,0.1-0.1,0.3c0,0.9-0.1,3.3-0.1,3.8c0,0.3-0.9,2.3-0.8,2.8c0,0.5-0.1,0.8-0.9,1.4
		c-0.2,0.2-1.1,0.4-1,1.1c0.1,0.7,0.6,1.5,0.6,1.5s0.8,1.3,0.2,1.8c-0.3,0.2-0.4,0.6-0.5,1s-0.3,0.8-1.4,0.6c0,0-0.3-0.3-0.5-0.5
		c-0.3-0.3-0.7-0.5-0.7-1.1c0-1.1,0-3.4,0-3.4c0-0.4-0.4-0.9-0.1-1.5c0.3-0.6,0.4-1.1,0.6-1.7c0.1-0.6,0.7-1.2,0.7-1.6
		c0-0.2,0-0.4-0.1-0.7c-0.1-0.4-0.3-0.7-0.2-1.1c0.2-0.7,0.5-0.9,1.1-0.8c0.6,0,1.2-0.8,1.2-1.4c0-0.6,0-1.1,0-1.4
		c-0.1-0.5-0.3-0.7-0.1-1.3c0.1-0.3,0.1-0.8,0.1-0.8s0.2-0.4,0.4-0.5V11.2z M72.1,37.6c0,0.3,0.3,0.6,0.6,0.6c0.3,0,0.6-0.3,0.6-0.6
		S73,37,72.7,37C72.3,37,72.1,37.3,72.1,37.6z M67.3,36.2c0.2,0,0.2,0,0.3,0c0.2-0.1,0.3-0.2,0.3-0.3c0-0.1-0.3-0.1-0.3-0.1
		c-0.2,0.3-0.2,0.2-0.3,0.2V36.2z M70.3,35.3c0.2-0.1,0.2-0.2,0.2-0.2h-0.2C70.3,35.3,70.3,35.3,70.3,35.3z M70.3,42.9
		c0.1,0.1,0.2,0.2,0.2,0.3c0.2,0.1,0.2-0.3,0.2-0.3c-0.1-0.2-0.2-0.2-0.3-0.2C70.3,42.6,70.3,42.9,70.3,42.9z M66.7,41.4
		c0,0-0.4-0.2-0.5-0.9c-0.1-0.8,0-0.7-0.3-0.9c-0.3-0.2-0.4-0.4-0.5-0.9c-0.1-0.4-0.3-0.6-0.3-1s0-0.6,0.2-0.9
		c0.1-0.2-0.1-1,0.1-1.4c0.2-0.3,1-1.3,1.9-1.4c0.8-0.1,0.5-0.3,1.1-0.3s0.9-0.2,1.3-0.4c0.3-0.2,0.3-0.3,1.1-0.4
		c0.8-0.1,1.4-0.3,1.8-0.3c0.2,0,0.5,0,0.6-0.1c0.2-0.1,0.7,0,0.7,0.4s0.1,0.8,0.2,1c0.2,0.6,0.5,0.8,0.5,1c0,0.2,0.1,0.7-0.2,0.9
		c0,0,0,0.9-0.2,1.1C74.1,37,74,37.2,74,37.4c-0.1,0.6,0.1,1-0.4,1.2c-0.5,0.1-0.7,0.3-0.8,0.9c0,0.7-0.1,0.9-0.2,1
		s-0.5,1.1-0.9,1.5c-0.4,0.3-0.9,1.5-1.2,1.8c-0.3,0.2-0.4,0.6-0.7,0.8c-0.2,0.2-0.5,0.3-0.5,0.3c0.1,0.1,0.2,0,0.3,0
		c0.1,0.1,0,0.2-0.1,0.4c-0.1,0.3-0.6,0-0.7,0.3c-0.1,0.3-0.4,0.7,0,0.9c0.2,0.1,0.4-0.1,0.4,0.3c0,0.4,0.3,0.7,0.7,0.6
		c0.3,0,0.6-0.6,0.3-0.8c-0.2-0.1,1.4-0.2,1.4-0.2c0.7,0.1,2.2-0.3,2.2-0.2s0.3,0.2,0.5,0.1c0.1,0,0.2-0.1,0.2-0.2
		c0.1-0.2,0.9-0.3,1.1-0.3c0.2,0,0.6,0,0.6,0.4c0.1,0.4,0,0.6,0.3,0.9c0.3,0.2,0.6,0.4,0.5,0.8c-0.1,0.4-0.5,0.4-0.7,0.4
		s-1.6,0.2-1.7,0.5c-0.1,0.3-0.4,0.7-0.7,0.6c-0.3,0-0.4-0.3-0.6-0.3c-0.2,0-0.2,0.2-0.7,0.3c-0.2,0-1.1,0.3-1.6,0.2
		c-1,0.1-2,0-2.1,0c-0.3,0.2-1.2,0-1.2,0s-0.8-0.3-1.5-0.3c-0.8,0-1.6-0.3-1.6-0.3s-0.3-0.1-0.9,0.1s-0.5-0.6-0.5-0.6
		s-0.1-0.5,0.6-0.5c0.2,0,0.6-1.4,0.9-1.4c0.4,0,1.2-1,1.2-1.1s1.1-1,1.4-1.3c0.1-0.1,0.6-1.2,0.7-1.3c0.1-0.2,0.4-1,0.4-1
		s0-0.3,0.3-0.3c0.4,0,0.6,0,0.6-0.2c0-0.3-0.2-1.9,0.1-1.8c0.3,0.1,0.8,0,0.8-0.1c0.1-0.3-0.1-0.9,0.4-1.1c0.4-0.2,1-0.1,1-0.7
		c0-0.6-0.2-1.1-0.2-1.5c0-0.2,0.1-0.8-0.3-0.8c-0.4,0-1.7,0.3-1.9,0.3c-0.2,0-0.9,0.1-1,0.5c-0.1,0.5,0,0.8,0,0.8s0.2,0.6-0.2,0.9
		c-0.4,0.3-0.1,1.2,0.1,1.6c0,0-0.6,0.6-0.6,0.8C67.4,40.9,66.7,41.4,66.7,41.4z M68.7,58.9c0,0-0.2,0.2-0.3,0.4
		c-0.1,0.3-0.2,0.4-0.3,0.4C68,59.8,68,60.1,68,60.5c0,0.4-0.8,2.2-1.1,2.4c-0.3,0.2-0.8,1.7-1,1.8c-0.2,0.1-0.7,0.9-0.9,0.9
		c-0.2,0-0.3,0.5,0.1,0.5c0.3,0,0.1-0.2,0.8-0.1c0.7,0,0.7,0.4,1.2,0.4c0.6,0,0.5,0.1,0.9,0.1c0.4,0,0.1,0,0.6-0.3
		c0.5-0.2,0.6-1.2,0.6-1.6c0-0.4,0.6-1.2,0.7-1.3c0.1-0.1,0.4-1.4,0.2-1.6c-0.2-0.2-0.2-1.7-0.2-2.4c0-0.7,0.1-0.5,0.1-1
		s-0.3-0.4-0.5-0.3c-0.2,0-0.2,0.4-0.4,0.5C68.9,58.7,68.7,58.9,68.7,58.9z M68.4,71c-0.2-0.1-0.2,0.2-0.2,0.2
		C68.3,71.1,68.3,71,68.4,71L68.4,71z M69.3,56c0-0.2,0.2-0.6,0.8-0.6c0.3,0,0.5,0.1,0.7,0.1c0.2,0.1,0.4,0,0.6,0.2
		c0.2,0.1,0,0.9-0.5,1.2c-0.2,0.1,0,0.9,0.2,1c0.4,0.3,0.5,0.4,0.8,0.5c0.2,0,0.8,0,0.9,0.5c0,0.5-0.2,0.4-0.2,0.6
		c0,0.2,0,0.3,0.2,0.5c0.2,0.1,0.1,1,0.1,1s-0.1,0.7-0.4,0.9c-0.2,0.1-0.2,0.4-0.3,0.7c-0.1,0.4-0.2,0.4-0.3,1
		c-0.1,0.6,0.1,1.3-0.1,1.5c-0.2,0.2-0.3,0.8-0.3,0.9c0,0.2-0.1,0.4,0.2,0.4c0.4,0,0.5-0.1,0.5-0.2c0-0.1,0.5-0.2,0.6-0.1
		c0.2,0.1,0.3,0.3,0.3,0.5c0,0.2-0.1,0.4,0.3,0.4c0.3,0,0-0.6,0.2-0.6c0.1-0.1,0.2-0.2,0.4-0.2c0.2,0,1.2-0.1,1.3,0.3
		c0.1,0.4,0.1,2.2-0.4,2.2s-0.5,0-0.6,0.2c-0.1,0.2-1.6,0.3-1.8,0.4c-0.2,0.1-0.7,0.1-1,0.1c-0.1-0.1-0.1-0.3-0.3-0.4
		c-0.2-0.1-0.7,0-0.7,0.3c0,0.3-0.4,0.5-0.3,1c0,0.5,0.1,2.5,0,2.7c-0.1,0.2-0.4,0.3-0.4,0.6c0,0.3-0.2,0.8-0.3,1
		c-0.1,0.2-0.1,1.3-0.1,1.3s0,0.3-0.2,0.4c-0.3,0-0.7-0.7-1.1-0.6c-0.4,0-1.7-1.2-1.9-1.4c0,0-0.1-1.4,0.1-1.4S67,72.2,67,72
		c0.1-0.3,0.2-1.2,0.4-1.2c0.2,0,0.7,0.1,0.7-0.2c0-0.2,0-0.3-0.3-0.5c-0.4-0.2-0.6-0.8-0.8-1C66.9,69,66.5,69,66.3,69
		c-0.3,0-1.1,0.2-1.4,0.4c-0.3,0.2-1.7,0.5-1.8,0.2c-0.1-0.2-0.3-0.8-0.5-0.8c-0.2,0.1-0.4,0.4-0.8,0.4c-0.4,0-0.7-0.3-0.7-0.8
		s0-0.9,0.3-1.2c0.5-0.5,0.3-1.5,0.5-1.7s0.6-0.7,1.3-0.8c0.6-0.1,0.9-1.1,1.1-1.4c0.2-0.3,1.2-1.5,1.2-1.8c0,0,0.4-1.4,0.5-1.6
		c0.1-0.5,1.2-1.2,1.5-1.5c0.1-0.2,0.4-0.4,0.4-0.4C67.9,57.7,69.3,56.3,69.3,56z M52.4,74.6c0,0,0.1-0.7,0.5-0.7
		c0.4,0.1,0.5,0.4,0.5,0.8c-0.1,0.3-0.3,1-0.6,1c-0.3,0-0.5-0.7-0.5-0.8C52.3,74.7,52.4,74.6,52.4,74.6z"/>
</g>
</svg>
