<?xml version="1.0" encoding="UTF-8" standalone="no"?>
<!-- Created with Inkscape (http://www.inkscape.org/) -->

<svg
   xmlns:osb="http://www.openswatchbook.org/uri/2009/osb"
   xmlns:dc="http://purl.org/dc/elements/1.1/"
   xmlns:cc="http://creativecommons.org/ns#"
   xmlns:rdf="http://www.w3.org/1999/02/22-rdf-syntax-ns#"
   xmlns:svg="http://www.w3.org/2000/svg"
   xmlns="http://www.w3.org/2000/svg"
   xmlns:sodipodi="http://sodipodi.sourceforge.net/DTD/sodipodi-0.dtd"
   xmlns:inkscape="http://www.inkscape.org/namespaces/inkscape"
   width="194.17848mm"
   height="102.81482mm"
   viewBox="0 0 194.17849 102.81482"
   version="1.1"
   id="svg8"
   inkscape:version="0.92.5 (2060ec1f9f, 2020-04-08)"
   sodipodi:docname="genotoscope_logo.svg"
   inkscape:export-filename="/home/damian/Documents/L3S/projects/hearing4all/human_genetics/genotoscope_web_images/genotoscope_logo_final.png"
   inkscape:export-xdpi="100"
   inkscape:export-ydpi="100">
  <defs
     id="defs2">
    <linearGradient
       id="linearGradient10770"
       osb:paint="solid">
      <stop
         style="stop-color:#b3b3b3;stop-opacity:1;"
         offset="0"
         id="stop10768" />
    </linearGradient>
    <inkscape:path-effect
       effect="spiro"
       id="path-effect9272"
       is_visible="true" />
    <inkscape:path-effect
       effect="spiro"
       id="path-effect9210"
       is_visible="true" />
    <inkscape:path-effect
       effect="spiro"
       id="path-effect9206"
       is_visible="true" />
    <inkscape:path-effect
       effect="spiro"
       id="path-effect9202"
       is_visible="true" />
    <inkscape:path-effect
       effect="powerstroke"
       id="path-effect9175"
       is_visible="true"
       offset_points="0,0.13229166"
       sort_points="true"
       interpolator_type="CubicBezierJohan"
       interpolator_beta="0.2"
       start_linecap_type="zerowidth"
       linejoin_type="extrp_arc"
       miter_limit="4"
       end_linecap_type="zerowidth" />
    <inkscape:path-effect
       effect="spiro"
       id="path-effect9103"
       is_visible="true" />
    <inkscape:path-effect
       effect="skeletal"
       id="path-effect9099"
       is_visible="true"
       pattern="M 0,5 C 0,2.24 2.24,0 5,0 7.76,0 10,2.24 10,5 10,7.76 7.76,10 5,10 2.24,10 0,7.76 0,5 Z"
       copytype="single_stretched"
       prop_scale="1"
       scale_y_rel="false"
       spacing="0"
       normal_offset="0"
       tang_offset="0"
       prop_units="false"
       vertical_pattern="false"
       fuse_tolerance="0" />
    <inkscape:path-effect
       effect="spiro"
       id="path-effect9097"
       is_visible="true" />
    <inkscape:path-effect
       effect="spiro"
       id="path-effect9006"
       is_visible="true" />
    <inkscape:path-effect
       effect="spiro"
       id="path-effect9002"
       is_visible="true" />
    <inkscape:path-effect
       effect="spiro"
       id="path-effect8994"
       is_visible="true" />
    <inkscape:path-effect
       effect="spiro"
       id="path-effect8803"
       is_visible="true" />
    <inkscape:path-effect
       effect="spiro"
       id="path-effect8799"
       is_visible="true" />
    <inkscape:path-effect
       effect="spiro"
       id="path-effect8795"
       is_visible="true" />
    <inkscape:path-effect
       effect="spiro"
       id="path-effect8791"
       is_visible="true" />
    <inkscape:path-effect
       effect="skeletal"
       id="path-effect8750"
       is_visible="true"
       pattern="M 0,5 C 0,2.24 2.24,0 5,0 7.76,0 10,2.24 10,5 10,7.76 7.76,10 5,10 2.24,10 0,7.76 0,5 Z"
       copytype="single_stretched"
       prop_scale="1"
       scale_y_rel="false"
       spacing="0"
       normal_offset="0"
       tang_offset="0"
       prop_units="false"
       vertical_pattern="false"
       fuse_tolerance="0" />
    <inkscape:path-effect
       effect="skeletal"
       id="path-effect8746"
       is_visible="true"
       pattern="M 0,5 C 0,2.24 2.24,0 5,0 7.76,0 10,2.24 10,5 10,7.76 7.76,10 5,10 2.24,10 0,7.76 0,5 Z"
       copytype="single_stretched"
       prop_scale="1"
       scale_y_rel="false"
       spacing="0"
       normal_offset="0"
       tang_offset="0"
       prop_units="false"
       vertical_pattern="false"
       fuse_tolerance="0" />
    <inkscape:path-effect
       effect="skeletal"
       id="path-effect8738"
       is_visible="true"
       pattern="M 0,5 C 0,2.24 2.24,0 5,0 7.76,0 10,2.24 10,5 10,7.76 7.76,10 5,10 2.24,10 0,7.76 0,5 Z"
       copytype="single_stretched"
       prop_scale="1"
       scale_y_rel="false"
       spacing="0"
       normal_offset="0"
       tang_offset="0"
       prop_units="false"
       vertical_pattern="false"
       fuse_tolerance="0" />
    <inkscape:path-effect
       effect="skeletal"
       id="path-effect8726"
       is_visible="true"
       pattern="M 0,5 C 0,2.24 2.24,0 5,0 7.76,0 10,2.24 10,5 10,7.76 7.76,10 5,10 2.24,10 0,7.76 0,5 Z"
       copytype="single_stretched"
       prop_scale="1"
       scale_y_rel="false"
       spacing="0"
       normal_offset="0"
       tang_offset="0"
       prop_units="false"
       vertical_pattern="false"
       fuse_tolerance="0" />
    <inkscape:path-effect
       effect="skeletal"
       id="path-effect8722"
       is_visible="true"
       pattern="M 0,5 C 0,2.24 2.24,0 5,0 7.76,0 10,2.24 10,5 10,7.76 7.76,10 5,10 2.24,10 0,7.76 0,5 Z"
       copytype="single_stretched"
       prop_scale="1"
       scale_y_rel="false"
       spacing="0"
       normal_offset="0"
       tang_offset="0"
       prop_units="false"
       vertical_pattern="false"
       fuse_tolerance="0" />
    <inkscape:path-effect
       effect="spiro"
       id="path-effect8803-2"
       is_visible="true" />
    <inkscape:path-effect
       effect="spiro"
       id="path-effect8799-0"
       is_visible="true" />
    <inkscape:path-effect
       effect="spiro"
       id="path-effect9006-8"
       is_visible="true" />
  </defs>
  <sodipodi:namedview
     id="base"
     pagecolor="#ffffff"
     bordercolor="#666666"
     borderopacity="1.0"
     inkscape:pageopacity="0"
     inkscape:pageshadow="2"
     inkscape:zoom="1.4142136"
     inkscape:cx="352.73162"
     inkscape:cy="194.48181"
     inkscape:document-units="mm"
     inkscape:current-layer="layer1"
     showgrid="false"
     inkscape:window-width="1848"
     inkscape:window-height="1016"
     inkscape:window-x="72"
     inkscape:window-y="27"
     inkscape:window-maximized="1"
     fit-margin-top="0"
     fit-margin-left="0"
     fit-margin-right="0"
     fit-margin-bottom="0"
     showguides="true"
     inkscape:guide-bbox="true">
    <sodipodi:guide
       position="147.79174,81.985276"
       orientation="0,1"
       id="guide9185"
       inkscape:locked="false" />
    <sodipodi:guide
       position="64.033153,37.121754"
       orientation="1,0"
       id="guide9187"
       inkscape:locked="false" />
    <sodipodi:guide
       position="120.11092,96.631291"
       orientation="0,1"
       id="guide4869"
       inkscape:locked="false" />
    <sodipodi:guide
       position="143.66875,-2.5135491"
       orientation="0,1"
       id="guide4990"
       inkscape:locked="false" />
    <sodipodi:guide
       position="146.97604,92.471867"
       orientation="0,1"
       id="guide4992"
       inkscape:locked="false" />
    <sodipodi:guide
       position="143.40416,5.1593675"
       orientation="0,1"
       id="guide4994"
       inkscape:locked="false" />
  </sodipodi:namedview>
  <metadata
     id="metadata5">
    <rdf:RDF>
      <cc:Work
         rdf:about="">
        <dc:format>image/svg+xml</dc:format>
        <dc:type
           rdf:resource="http://purl.org/dc/dcmitype/StillImage" />
        <dc:title></dc:title>
      </cc:Work>
    </rdf:RDF>
  </metadata>
  <g
     inkscape:label="Layer 1"
     inkscape:groupmode="layer"
     id="layer1"
     transform="translate(-91.48262,-159.83903)">
    <path
       style="fill:#e6e6e6;fill-rule:evenodd;stroke:#1a1a1a;stroke-width:1;stroke-linecap:square;stroke-linejoin:round;stroke-miterlimit:4;stroke-dasharray:none;stroke-opacity:1;paint-order:fill markers stroke"
       d="m 185.62307,192.29534 c 7.52059,-2.41326 14.9216,-5.06567 23.89044,-4.58242 1.19036,2.84434 3.3661,4.2106 6.04959,4.81524 2.48254,0.25039 4.9326,0.86995 8.44534,-1.59344 l 6.28009,7.22955 2.37645,3.15665 -2.62096,2.11411 40.0693,54.05046 c 6.34219,-0.99259 12.19012,-3.02311 15.04778,-11.33322 l -40.85876,-53.4506 -2.7561,1.93326 -5.58037,-8.52423 c 2.04349,-1.24965 3.02721,-3.13516 3.30849,-5.44213 -0.82815,-8.0008 -3.65915,-14.84533 -8.46386,-20.32954 -10.55824,0.40011 -20.18369,2.30701 -26.19375,10.05417 -0.48315,1.92846 0.17119,4.49052 0.79687,7.15822 -6.19729,6.51426 -13.19533,10.22588 -20.38129,13.27977 -0.84627,0.90532 -0.42834,1.30497 0.59074,1.46415 z"
       id="path8742"
       inkscape:connector-curvature="0"
       sodipodi:nodetypes="cccccccccccccccccc"
       inkscape:export-xdpi="100"
       inkscape:export-ydpi="100"
       inkscape:export-filename="/home/damian/path8742.png" />
    <ellipse
       style="opacity:0.75;fill:#80e5ff;fill-opacity:1;fill-rule:evenodd;stroke:none;stroke-width:0.31872842;stroke-linecap:butt;stroke-linejoin:round;stroke-miterlimit:4;stroke-dasharray:none;stroke-dashoffset:0;stroke-opacity:1;paint-order:fill markers stroke"
       id="path8758"
       cx="-159.35626"
       cy="312.04034"
       rx="3.4170434"
       ry="11.152627"
       transform="matrix(-0.69246611,0.7214504,0.394655,0.91882938,0,0)"
       inkscape:export-xdpi="100"
       inkscape:export-ydpi="100"
       inkscape:export-filename="/home/damian/path8742.png" />
    <path
       style="fill:#333333;fill-rule:evenodd;stroke:#000000;stroke-width:0.26458332px;stroke-linecap:butt;stroke-linejoin:miter;stroke-opacity:1"
       d="m 145.39986,218.56995 c -2.56404,0.74897 -5.42027,0.43925 -7.76417,-0.8419 -1.66091,-0.90784 -3.0488,-2.272 -4.11596,-3.83532 -1.4443,-2.11581 -2.32373,-4.64118 -2.3386,-7.20291 -0.0126,-2.17446 0.64294,-4.42076 2.15152,-5.98684 0.98785,-1.02551 2.27565,-1.70535 3.36759,-2.61924 1.70112,-1.42374 2.89205,-3.40211 3.55469,-5.51912 0.85928,-2.74523 0.85332,-5.73813 0.0935,-8.51253 -0.38876,-1.41952 -0.97279,-2.78997 -1.77734,-4.0224 -0.19768,-0.30281 -0.41003,-0.59893 -0.67011,-0.85018 -0.26008,-0.25125 -0.57143,-0.45724 -0.92014,-0.55299 -0.42965,-0.11797 -0.90624,-0.0578 -1.29064,0.16751 -0.3844,0.22528 -0.67063,0.61364 -0.76734,1.04857 -0.0898,0.40403 -0.0196,0.82963 0.11949,1.21945 0.13912,0.38982 0.34473,0.75174 0.53532,1.11915 0.58309,1.12404 1.0333,2.31893 1.30962,3.55469 0.4194,1.87567 0.43038,3.85698 -0.0935,5.7062 -0.43292,1.52816 -1.2432,2.96929 -2.43216,4.02241 -1.13619,1.00638 -2.57956,1.63498 -3.64823,2.71278 -0.92211,0.92998 -1.50882,2.13977 -1.96443,3.3676 -0.9172,2.47176 -1.36752,5.14956 -1.02898,7.76418 0.34492,2.66395 1.50687,5.19537 3.1805,7.29646 1.8457,2.31711 4.32533,4.13264 7.10937,5.14494 1.55829,0.56661 3.20702,0.88367 4.86431,0.93544"
       id="path8801"
       inkscape:connector-curvature="0"
       inkscape:path-effect="#path-effect8803"
       inkscape:original-d="m 145.39986,218.56995 c -2.58779,-0.2809 -5.17585,-0.56153 -7.76417,-0.8419 -2.58833,-0.28037 -2.74371,-2.55714 -4.11596,-3.83532 -1.37224,-1.27817 -1.5588,-4.8022 -2.3386,-7.20291 -0.7798,-2.40071 1.43461,-3.99149 2.15152,-5.98684 0.7169,-1.99535 2.24533,-1.74642 3.36759,-2.61924 1.12227,-0.87282 2.37006,-3.67967 3.55469,-5.51912 1.18463,-1.83944 0.0626,-5.67528 0.0935,-8.51253 0.0309,-2.83725 -1.18463,-2.68187 -1.77734,-4.0224 -0.59271,-1.34054 -1.0599,-0.93571 -1.59025,-1.40317 -0.53035,-0.46746 -1.37172,0.81045 -2.05798,1.21608 -0.68626,0.40562 0.4368,1.5588 0.65481,2.3386 0.21801,0.7798 0.87335,2.36953 1.30962,3.55469 0.43628,1.18516 -0.0621,3.80387 -0.0935,5.7062 -0.0315,1.90234 -1.62117,2.68134 -2.43216,4.02241 -0.81098,1.34106 -2.43188,1.80826 -3.64823,2.71278 -1.21634,0.90453 -1.30935,2.24481 -1.96443,3.3676 -0.65507,1.1228 -0.68572,5.17586 -1.02898,7.76418 -0.34326,2.58832 2.1206,4.86404 3.1805,7.29646 1.05991,2.43242 4.73985,3.42969 7.10937,5.14494 2.36953,1.71524 3.24314,0.62336 4.86431,0.93544"
       transform="translate(13.758339,-4.762499)"
       inkscape:export-xdpi="100"
       inkscape:export-ydpi="100"
       inkscape:export-filename="/home/damian/path8742.png" />
    <path
       style="fill:#e6e6e6;fill-rule:evenodd;stroke:#000000;stroke-width:0.26458332px;stroke-linecap:butt;stroke-linejoin:round;stroke-opacity:1"
       d="m 134.36904,187.24091 13.84457,-9.16735 c 1.46852,-0.0327 1.47352,0.6664 1.21607,1.49671 l -13.56393,9.35444 c -1.59953,0.24586 -1.75435,-0.56773 -1.49671,-1.6838 z"
       id="path8805"
       inkscape:connector-curvature="0"
       sodipodi:nodetypes="ccccc"
       inkscape:export-xdpi="100"
       inkscape:export-ydpi="100"
       inkscape:export-filename="/home/damian/path8742.png" />
    <path
       style="fill:#e6e6e6;fill-rule:evenodd;stroke:#000000;stroke-width:0.23300898px;stroke-linecap:butt;stroke-linejoin:round;stroke-opacity:1"
       d="m 137.22671,189.77995 12.1924,-8.07336 c 1.29328,-0.0288 1.29768,0.58687 1.07095,1.31809 l -11.94526,8.23812 c -1.40865,0.21654 -1.54499,-0.49997 -1.31809,-1.48285 z"
       id="path8805-9"
       inkscape:connector-curvature="0"
       sodipodi:nodetypes="ccccc"
       inkscape:export-xdpi="100"
       inkscape:export-ydpi="100"
       inkscape:export-filename="/home/damian/path8742.png" />
    <path
       style="fill:#e6e6e6;fill-rule:evenodd;stroke:#000000;stroke-width:0.26458332px;stroke-linecap:butt;stroke-linejoin:miter;stroke-opacity:1"
       d="m 141.85259,190.88914 6.7352,-4.5369 c 0.89798,0.12338 1.43723,0.56562 1.21607,1.68379 l -6.50132,4.16273 c -1.35484,0.29197 -1.43626,-0.38237 -1.44995,-1.30962 z"
       id="path8837"
       inkscape:connector-curvature="0"
       sodipodi:nodetypes="ccccc"
       inkscape:export-xdpi="100"
       inkscape:export-ydpi="100"
       inkscape:export-filename="/home/damian/path8742.png" />
    <path
       style="fill:#e6e6e6;fill-rule:evenodd;stroke:#000000;stroke-width:0.26458332px;stroke-linecap:butt;stroke-linejoin:miter;stroke-opacity:1"
       d="m 146.41238,197.89664 6.73519,-4.5369 c 0.89798,0.12338 1.43723,0.56562 1.21607,1.68379 l -6.50133,4.16273 c -1.35482,0.29197 -1.43624,-0.38237 -1.44993,-1.30962 z"
       id="path8837-1"
       inkscape:connector-curvature="0"
       sodipodi:nodetypes="ccccc"
       inkscape:export-xdpi="100"
       inkscape:export-ydpi="100"
       inkscape:export-filename="/home/damian/path8742.png" />
    <path
       style="fill:#e6e6e6;fill-rule:evenodd;stroke:#000000;stroke-width:0.26458332px;stroke-linecap:butt;stroke-linejoin:miter;stroke-opacity:1"
       d="m 156.14098,212.20892 6.7352,-4.5369 c 0.89798,0.12338 1.43723,0.56562 1.21607,1.68379 l -6.50133,4.16273 c -1.35483,0.29197 -1.43625,-0.38237 -1.44994,-1.30962 z"
       id="path8837-0"
       inkscape:connector-curvature="0"
       sodipodi:nodetypes="ccccc"
       inkscape:export-xdpi="100"
       inkscape:export-ydpi="100"
       inkscape:export-filename="/home/damian/path8742.png" />
    <path
       style="fill:#e6e6e6;fill-rule:evenodd;stroke:#000000;stroke-width:0.26458332px;stroke-linecap:butt;stroke-linejoin:round;stroke-opacity:1"
       d="m 147.73169,207.33137 13.84456,-9.16736 c 1.46852,-0.0327 1.47352,0.6664 1.21607,1.49671 l -13.56392,9.35444 c -1.59953,0.24587 -1.75435,-0.56772 -1.49671,-1.68379 z"
       id="path8805-4"
       inkscape:connector-curvature="0"
       sodipodi:nodetypes="ccccc"
       inkscape:export-xdpi="100"
       inkscape:export-ydpi="100"
       inkscape:export-filename="/home/damian/path8742.png" />
    <path
       style="fill:#e6e6e6;fill-rule:evenodd;stroke:#000000;stroke-width:0.23300898px;stroke-linecap:butt;stroke-linejoin:round;stroke-opacity:1"
       d="m 146.24666,203.33273 12.19238,-8.07336 c 1.29328,-0.0288 1.29768,0.58687 1.07095,1.31809 l -11.94525,8.23812 c -1.40864,0.21654 -1.54498,-0.49997 -1.31808,-1.48285 z"
       id="path8805-9-2"
       inkscape:connector-curvature="0"
       sodipodi:nodetypes="ccccc"
       inkscape:export-xdpi="100"
       inkscape:export-ydpi="100"
       inkscape:export-filename="/home/damian/path8742.png" />
    <path
       style="fill:#e6e6e6;fill-rule:evenodd;stroke:#000000;stroke-width:0.23300898px;stroke-linecap:butt;stroke-linejoin:round;stroke-opacity:1"
       d="m 151.11095,210.39533 12.19239,-8.07336 c 1.29328,-0.0288 1.29768,0.58687 1.07095,1.31809 l -11.94525,8.23812 c -1.40865,0.21654 -1.54499,-0.49997 -1.31809,-1.48285 z"
       id="path8805-9-22"
       inkscape:connector-curvature="0"
       sodipodi:nodetypes="ccccc"
       inkscape:export-xdpi="100"
       inkscape:export-ydpi="100"
       inkscape:export-filename="/home/damian/path8742.png" />
    <path
       style="fill:#e6e6e6;fill-rule:evenodd;stroke:#000000;stroke-width:0.26458332px;stroke-linecap:butt;stroke-linejoin:miter;stroke-opacity:1"
       d="m 161.05206,219.78601 6.7352,-4.5369 c 0.89798,0.12338 1.43723,0.56562 1.21607,1.68379 l -6.50133,4.16273 c -1.35483,0.29197 -1.43625,-0.38237 -1.44994,-1.30962 z"
       id="path8837-0-0"
       inkscape:connector-curvature="0"
       sodipodi:nodetypes="ccccc"
       inkscape:export-xdpi="100"
       inkscape:export-ydpi="100"
       inkscape:export-filename="/home/damian/path8742.png" />
    <path
       style="fill:#e6e6e6;fill-rule:evenodd;stroke:#000000;stroke-width:0.23300898px;stroke-linecap:butt;stroke-linejoin:round;stroke-opacity:1"
       d="m 160.2783,224.47374 12.19239,-8.07336 c 1.29328,-0.0288 1.29768,0.58687 1.07095,1.31809 l -11.94525,8.23812 c -1.40865,0.21654 -1.54499,-0.49997 -1.31809,-1.48285 z"
       id="path8805-9-22-5"
       inkscape:connector-curvature="0"
       sodipodi:nodetypes="ccccc"
       inkscape:export-xdpi="100"
       inkscape:export-ydpi="100"
       inkscape:export-filename="/home/damian/path8742.png" />
    <path
       style="fill:#e6e6e6;fill-rule:evenodd;stroke:#000000;stroke-width:0.26458332px;stroke-linecap:butt;stroke-linejoin:round;stroke-opacity:1"
       d="m 161.34239,227.86435 13.84456,-9.16736 c 1.46852,-0.0327 1.47352,0.6664 1.21607,1.49671 l -13.56392,9.35444 c -1.59953,0.24588 -1.75435,-0.56771 -1.49671,-1.68379 z"
       id="path8805-4-5"
       inkscape:connector-curvature="0"
       sodipodi:nodetypes="ccccc"
       inkscape:export-xdpi="100"
       inkscape:export-ydpi="100"
       inkscape:export-filename="/home/damian/path8742.png" />
    <path
       transform="matrix(-0.37906939,0.92536826,0.92536826,0.37906939,16.288122,-6.2484484)"
       style="fill:#999999;fill-rule:evenodd;stroke:#000000;stroke-width:0.26458332px;stroke-linecap:butt;stroke-linejoin:miter;stroke-opacity:1"
       d="m 145.39986,218.56995 c -2.56404,0.74897 -5.42027,0.43925 -7.76417,-0.8419 -1.66091,-0.90784 -3.0488,-2.272 -4.11596,-3.83532 -1.4443,-2.11581 -2.32373,-4.64118 -2.3386,-7.20291 -0.0126,-2.17446 0.64294,-4.42076 2.15152,-5.98684 0.98785,-1.02551 2.27565,-1.70535 3.36759,-2.61924 1.70112,-1.42374 2.89205,-3.40211 3.55469,-5.51912 0.85928,-2.74523 0.85332,-5.73813 0.0935,-8.51253 -0.38876,-1.41952 -0.97279,-2.78997 -1.77734,-4.0224 -0.19768,-0.30281 -0.41003,-0.59893 -0.67011,-0.85018 -0.26008,-0.25125 -0.57143,-0.45724 -0.92014,-0.55299 -0.42965,-0.11797 -0.90624,-0.0578 -1.29064,0.16751 -0.3844,0.22528 -0.67063,0.61364 -0.76734,1.04857 -0.0898,0.40403 -0.0196,0.82963 0.11949,1.21945 0.13912,0.38982 0.34473,0.75174 0.53532,1.11915 0.58309,1.12404 1.0333,2.31893 1.30962,3.55469 0.4194,1.87567 0.43038,3.85698 -0.0935,5.7062 -0.43292,1.52816 -1.24319,2.9693 -2.43216,4.02241 -1.1362,1.00637 -2.57957,1.63496 -3.64823,2.71278 -0.9221,0.92999 -1.50877,2.13979 -1.96443,3.3676 -0.91731,2.47175 -1.36812,5.14961 -1.02898,7.76418 0.34552,2.66374 1.50877,5.19403 3.1805,7.29646 1.84406,2.31916 4.32143,4.14174 7.10937,5.14494 1.61834,0.58234 3.33509,0.89014 5.05494,0.90631"
       id="path8801-9"
       inkscape:connector-curvature="0"
       inkscape:path-effect="#path-effect8803-2"
       inkscape:original-d="m 145.39986,218.56995 c -2.58779,-0.2809 -5.17585,-0.56153 -7.76417,-0.8419 -2.58833,-0.28037 -2.74371,-2.55714 -4.11596,-3.83532 -1.37224,-1.27817 -1.5588,-4.8022 -2.3386,-7.20291 -0.7798,-2.40071 1.43461,-3.99149 2.15152,-5.98684 0.7169,-1.99535 2.24533,-1.74642 3.36759,-2.61924 1.12227,-0.87282 2.37006,-3.67967 3.55469,-5.51912 1.18463,-1.83944 0.0626,-5.67528 0.0935,-8.51253 0.0309,-2.83725 -1.18463,-2.68187 -1.77734,-4.0224 -0.59271,-1.34054 -1.0599,-0.93571 -1.59025,-1.40317 -0.53035,-0.46746 -1.37172,0.81045 -2.05798,1.21608 -0.68626,0.40562 0.4368,1.5588 0.65481,2.3386 0.21801,0.7798 0.87335,2.36953 1.30962,3.55469 0.43628,1.18516 -0.0621,3.80387 -0.0935,5.7062 -0.0315,1.90234 -1.62117,2.68134 -2.43216,4.02241 -0.81098,1.34106 -2.43188,1.80826 -3.64823,2.71278 -1.21634,0.90453 -1.30935,2.24481 -1.96443,3.3676 -0.65507,1.1228 -0.68572,5.17586 -1.02898,7.76418 -0.34326,2.58832 2.1206,4.86404 3.1805,7.29646 1.05991,2.43242 4.73985,3.42969 7.10937,5.14494 2.36953,1.71524 3.43377,0.59423 5.05494,0.90631"
       sodipodi:nodetypes="cssscccscscscccccsccc"
       inkscape:export-xdpi="100"
       inkscape:export-ydpi="100"
       inkscape:export-filename="/home/damian/path8742.png" />
    <path
       transform="matrix(-0.40088292,0.91612929,0.91612929,0.40088292,21.16952,-9.5600843)"
       style="fill:#999999;fill-rule:evenodd;stroke:#000000;stroke-width:0.26458332px;stroke-linecap:butt;stroke-linejoin:miter;stroke-opacity:1"
       d="m 151.57379,219.41185 c 1.76344,-0.29177 3.5799,-0.25992 5.33203,0.0935 0.83067,0.16755 1.65113,0.40841 2.41052,0.78446 0.7594,0.37604 1.45788,0.89149 1.98606,1.55415 0.5094,0.6391 0.84794,1.39579 1.303,2.07466 0.22752,0.33944 0.48618,0.6613 0.79811,0.92528 0.31193,0.26397 0.67987,0.46894 1.0794,0.55475 0.34106,0.0733 0.70213,0.0574 1.03244,-0.0548 0.33032,-0.11217 0.62842,-0.32149 0.83845,-0.60002 0.31915,-0.42323 0.41982,-0.98382 0.35578,-1.51002 -0.064,-0.52619 -0.28004,-1.02307 -0.54287,-1.4834 -0.8045,-1.40904 -2.04654,-2.51911 -3.3676,-3.46114 -1.29915,-0.9264 -2.70302,-1.71918 -4.20949,-2.24507 -1.43956,-0.50253 -2.9654,-0.75684 -4.49013,-0.74835"
       id="path8797-2"
       inkscape:connector-curvature="0"
       inkscape:path-effect="#path-effect8799-0"
       inkscape:original-d="m 151.57379,219.41185 c 1.77761,0.0309 3.55495,0.0621 5.33203,0.0935 1.77708,0.0315 2.93132,1.55881 4.39658,2.33861 1.46526,0.7798 2.12061,2.36953 3.18051,3.55469 1.0599,1.18515 1.24752,-0.43681 1.87089,-0.65481 0.62336,-0.21801 -0.12446,-1.99588 -0.18709,-2.99342 -0.0626,-0.99755 -2.2448,-2.30769 -3.3676,-3.46114 -1.1228,-1.15345 -2.80606,-1.49698 -4.20949,-2.24507 -1.40343,-0.74809 -2.99316,-0.49917 -4.49013,-0.74835"
       inkscape:export-xdpi="100"
       inkscape:export-ydpi="100"
       inkscape:export-filename="/home/damian/path8742.png" />
    <path
       style="fill:#333333;fill-rule:evenodd;stroke:#000000;stroke-width:0.26458332px;stroke-linecap:round;stroke-linejoin:round;stroke-opacity:1;paint-order:normal"
       d="m 142.87417,222.6859 c 0.72335,-0.0811 1.44574,-0.17079 2.16696,-0.26904 0.87394,-0.11905 1.74617,-0.25067 2.61633,-0.3948 0.37307,-0.53118 0.8182,-1.01168 1.31935,-1.42421 0.60152,-0.49515 1.28484,-0.89245 2.01745,-1.15755 1.40671,-0.50903 2.95214,-0.5182 4.43177,-0.29766 1.04578,0.15587 2.07908,0.42475 3.04271,0.8599 1.02474,0.46275 1.96275,1.11095 2.77812,1.88516 0.68561,0.651 1.28315,1.38766 1.88516,2.11666 0.2957,0.35807 0.6064,0.72552 1.02526,0.92604 0.29279,0.14017 0.62792,0.18956 0.94905,0.14209 0.32112,-0.0475 0.62705,-0.19134 0.86996,-0.40667 0.27423,-0.2431 0.4657,-0.57408 0.55799,-0.92873 0.0923,-0.35466 0.0873,-0.7318 0.004,-1.08872 -0.1332,-0.57213 -0.46061,-1.08357 -0.85294,-1.52078 -0.39232,-0.43721 -0.85072,-0.80898 -1.2968,-1.1912 -0.92913,-0.79613 -1.81782,-1.64914 -2.84427,-2.3151 -0.97418,-0.63205 -2.05367,-1.08307 -3.14193,-1.48828 -0.75354,-0.28058 -1.51991,-0.54226 -2.3151,-0.66146 -0.53466,-0.0802 -1.07681,-0.095 -1.6174,-0.10136 -0.40895,-0.005 -0.81796,-0.005 -1.22688,0.002 -0.45259,0.008 -0.90535,0.0236 -1.35599,0.0662 -0.75439,0.0714 -1.50417,0.2184 -2.21638,0.47716 -0.63492,0.23068 -1.23767,0.54973 -1.78543,0.94507 l -2.48555,1.70933"
       id="path9101"
       inkscape:connector-curvature="0"
       inkscape:path-effect="#path-effect9103"
       inkscape:original-d="m 142.87417,222.6859 c 0.71156,-0.0899 1.44491,-0.17962 2.16696,-0.26904 0.72206,-0.0894 1.74448,-0.26346 2.61633,-0.3948 0.33632,-0.59991 0.769,-1.04671 1.31935,-1.42421 0.53335,-0.36584 1.34523,-0.77196 2.01745,-1.15755 0.67222,-0.38558 2.95478,-0.1987 4.43177,-0.29766 1.47699,-0.099 2.02874,0.573 3.04271,0.8599 1.01397,0.2869 1.85234,1.25651 2.77812,1.88516 0.92578,0.62865 1.25704,1.41084 1.88516,2.11666 0.62812,0.70582 0.68377,0.6171 1.02526,0.92604 0.34149,0.30895 1.21293,-0.17665 1.81901,-0.26458 0.60607,-0.0879 0.37509,-1.34523 0.56224,-2.01745 0.18714,-0.67221 -1.4329,-1.80825 -2.14974,-2.71198 -0.71685,-0.90372 -1.89592,-1.54366 -2.84427,-2.3151 -0.94836,-0.77143 -2.09436,-0.99245 -3.14193,-1.48828 -1.04757,-0.49583 -1.4329,-0.45226 -2.3151,-0.66146 -0.88221,-0.20919 -1.17722,0.0204 -1.6174,-0.10136 -0.44018,-0.12172 -0.82867,-0.076 -1.22688,0.002 -0.39819,0.0781 -0.82655,-2.6e-4 -1.35599,0.0662 -0.52943,0.0664 -1.64562,0.12275 -2.21638,0.47716 -0.53714,0.33354 -0.7916,0.85302 -1.78543,0.94507 -1.05225,0.31235 -1.98533,1.21335 -2.48555,1.70933"
       sodipodi:nodetypes="cccsccssscccccscsccscc"
       transform="translate(13.758339,-4.762499)"
       inkscape:export-xdpi="100"
       inkscape:export-ydpi="100"
       inkscape:export-filename="/home/damian/path8742.png" />
    <path
       style="opacity:1;fill:#333333;fill-opacity:1;fill-rule:evenodd;stroke:#4d4d4d;stroke-width:0.06681324;stroke-linecap:square;stroke-linejoin:round;stroke-miterlimit:4;stroke-dasharray:none;stroke-dashoffset:0;stroke-opacity:1;paint-order:fill markers stroke"
       d=""
       id="path9105"
       inkscape:connector-curvature="0"
       transform="matrix(0.26458333,0,0,0.26458333,9.0122271,146.50417)"
       inkscape:export-xdpi="100"
       inkscape:export-ydpi="100"
       inkscape:export-filename="/home/damian/path8742.png" />
    <path
       style="opacity:1;fill:#333333;fill-opacity:1;fill-rule:evenodd;stroke:#4d4d4d;stroke-width:0.01767767;stroke-linecap:square;stroke-linejoin:round;stroke-miterlimit:4;stroke-dasharray:none;stroke-dashoffset:0;stroke-opacity:1;paint-order:fill markers stroke"
       d="m 178.30244,220.13951 c -0.49122,-0.1228 -0.73428,-0.33333 -1.67217,-1.44835 -0.90137,-1.0716 -1.43584,-1.63197 -2.01331,-2.11084 -1.71043,-1.41842 -3.6518,-2.19042 -6.11456,-2.43148 -0.76361,-0.0747 -2.14375,-0.0265 -2.74321,0.0959 -1.46106,0.29831 -2.73894,1.01075 -3.78362,2.10945 -0.24876,0.26161 -0.48832,0.53668 -0.53238,0.61125 -0.044,0.0746 -0.11237,0.14526 -0.15182,0.15707 -0.12445,0.0373 -2.22363,0.34402 -3.39256,0.49578 -1.27872,0.16602 -1.8344,0.16547 -2.97584,-0.003 -2.82301,-0.41651 -5.35107,-1.52489 -7.64144,-3.35024 -0.66024,-0.52619 -1.89922,-1.76509 -2.42624,-2.42607 -2.38202,-2.98747 -3.52803,-6.41345 -3.30731,-9.88715 0.10063,-1.58363 0.36272,-2.90281 0.89868,-4.52328 l 0.23356,-0.7062 0.61686,-0.0292 c 0.98589,-0.0466 2.0234,-0.24323 2.98989,-0.56659 0.27414,-0.0917 0.51189,-0.16676 0.52835,-0.16676 0.0165,0 -0.0744,0.13155 -0.20193,0.29233 -0.91248,1.15047 -1.46992,2.49268 -1.72397,4.15103 -0.12179,0.795 -0.11122,2.28726 0.0224,3.15712 0.45108,2.93725 1.85675,5.64969 4.01185,7.74135 1.66242,1.61349 3.45661,2.52867 5.74789,2.93187 0.36845,0.0648 0.72582,0.082 1.6838,0.0807 1.14056,-0.002 1.25674,-0.01 1.87089,-0.13238 0.36014,-0.0719 0.68638,-0.13387 0.72497,-0.13767 0.0386,-0.004 0.10685,-0.0595 0.1517,-0.12383 0.0448,-0.0643 0.0817,-0.0884 0.0819,-0.0535 1.8e-4,0.0384 0.0293,0.0523 0.0736,0.0353 0.0403,-0.0155 0.69996,-0.45886 1.46588,-0.9853 0.76593,-0.52645 1.53802,-1.04102 1.71575,-1.14348 0.7757,-0.44721 1.89546,-0.79066 2.97255,-0.91173 1.48388,-0.16681 3.78449,-0.1344 4.77394,0.0672 0.55966,0.11406 1.56697,0.44011 2.51574,0.81431 1.43495,0.56596 2.57194,1.20702 3.5313,1.99103 0.64946,0.53075 2.78581,2.39855 2.97521,2.60121 0.71234,0.76219 0.9988,1.40768 0.96974,2.18512 -0.0139,0.37323 -0.0364,0.47143 -0.16953,0.74163 -0.18354,0.37253 -0.5218,0.6968 -0.83993,0.8052 -0.2866,0.0977 -0.64487,0.12743 -0.86655,0.072 z m -21.31569,-2.75797 c 0.0275,-0.0514 0.0395,-0.0935 0.0267,-0.0935 -0.0129,0 -0.0459,0.0421 -0.0735,0.0935 -0.0275,0.0514 -0.0395,0.0935 -0.0267,0.0935 0.0129,0 0.0459,-0.0421 0.0734,-0.0935 z m 0.74836,-1.21608 c 0.0275,-0.0514 0.0395,-0.0935 0.0267,-0.0935 -0.0129,0 -0.0459,0.0421 -0.0734,0.0935 -0.0275,0.0515 -0.0395,0.0935 -0.0267,0.0935 0.0129,0 0.0459,-0.0421 0.0735,-0.0935 z m 0.37418,-0.60804 c 0.0275,-0.0514 0.0395,-0.0935 0.0267,-0.0935 -0.0129,0 -0.0459,0.0421 -0.0734,0.0935 -0.0275,0.0514 -0.0395,0.0935 -0.0267,0.0935 0.0129,0 0.0459,-0.0421 0.0734,-0.0935 z m 0.14031,-0.23386 c 0.0275,-0.0514 0.0395,-0.0935 0.0267,-0.0935 -0.0129,0 -0.0459,0.0421 -0.0734,0.0935 -0.0275,0.0515 -0.0395,0.0936 -0.0267,0.0936 0.0129,0 0.0459,-0.0421 0.0734,-0.0936 z m 0.23386,-0.37417 c 0.0275,-0.0514 0.0395,-0.0935 0.0267,-0.0935 -0.0129,0 -0.0459,0.0421 -0.0735,0.0935 -0.0275,0.0515 -0.0395,0.0935 -0.0267,0.0935 0.0129,0 0.0459,-0.0421 0.0735,-0.0935 z m 0.14032,-0.23387 c 0.0275,-0.0514 0.0395,-0.0935 0.0267,-0.0935 -0.0129,0 -0.0459,0.0421 -0.0735,0.0935 -0.0275,0.0515 -0.0395,0.0935 -0.0267,0.0935 0.0129,0 0.0459,-0.0421 0.0735,-0.0935 z m 0.23987,-0.39756 0.0459,-0.0935 -0.0762,0.0935 c -0.0419,0.0514 -0.0968,0.13564 -0.12209,0.18709 l -0.0459,0.0935 0.0762,-0.0935 c 0.0419,-0.0515 0.0968,-0.13564 0.12209,-0.18709 z"
       id="path9107"
       inkscape:connector-curvature="0"
       inkscape:export-xdpi="100"
       inkscape:export-ydpi="100"
       inkscape:export-filename="/home/damian/path8742.png" />
    <path
       style="opacity:1;fill:#333333;fill-opacity:1;fill-rule:evenodd;stroke:#4d4d4d;stroke-width:0.00625;stroke-linecap:square;stroke-linejoin:round;stroke-miterlimit:4;stroke-dasharray:none;stroke-dashoffset:0;stroke-opacity:1;paint-order:fill markers stroke"
       d="m 157.72913,216.16284 c -0.009,-0.0119 -0.0149,-0.031 -0.0132,-0.0424 0.002,-0.0114 0.004,-0.0285 0.005,-0.0382 10e-4,-0.01 0.01,-0.0128 0.0189,-0.007 0.009,0.006 0.0129,0.0167 0.008,0.0244 -0.005,0.008 3e-5,0.0169 0.0106,0.0204 0.0134,0.004 0.0143,0.0153 0.003,0.0355 -0.013,0.0233 -0.0195,0.0248 -0.0326,0.007 z"
       id="path9109"
       inkscape:connector-curvature="0"
       inkscape:export-xdpi="100"
       inkscape:export-ydpi="100"
       inkscape:export-filename="/home/damian/path8742.png" />
    <path
       style="opacity:1;fill:#333333;fill-opacity:1;fill-rule:evenodd;stroke:#4d4d4d;stroke-width:0.0015625;stroke-linecap:square;stroke-linejoin:round;stroke-miterlimit:4;stroke-dasharray:none;stroke-dashoffset:0;stroke-opacity:1;paint-order:fill markers stroke"
       d="m 157.73533,216.16413 c -0.0104,-0.0125 -0.0174,-0.0367 -0.0149,-0.0516 0.007,-0.0422 0.008,-0.0438 0.0205,-0.0313 0.005,0.005 0.006,0.0104 0.004,0.0181 -0.002,0.0111 0.006,0.0248 0.0148,0.0248 0.006,0 0.004,0.0206 -0.003,0.0335 -0.008,0.0131 -0.0142,0.0151 -0.0212,0.007 z"
       id="path9111"
       inkscape:connector-curvature="0"
       inkscape:export-xdpi="100"
       inkscape:export-ydpi="100"
       inkscape:export-filename="/home/damian/path8742.png" />
    <path
       style="opacity:1;fill:#333333;fill-opacity:1;fill-rule:evenodd;stroke:#4d4d4d;stroke-width:0.0015625;stroke-linecap:square;stroke-linejoin:round;stroke-miterlimit:4;stroke-dasharray:none;stroke-dashoffset:0;stroke-opacity:1;paint-order:fill markers stroke"
       d="m 157.72404,216.14788 c -0.008,-0.0177 -0.005,-0.0682 0.005,-0.072 0.0106,-0.004 0.0182,0.007 0.0175,0.025 -5.3e-4,0.0168 -7.9e-4,0.0168 -0.002,0.003 -0.002,-0.0177 -0.009,-0.0278 -0.0139,-0.0201 -0.007,0.012 -0.008,0.0437 -0.002,0.0593 0.008,0.0201 0.005,0.0243 -0.004,0.005 z"
       id="path9113"
       inkscape:connector-curvature="0"
       inkscape:export-xdpi="100"
       inkscape:export-ydpi="100"
       inkscape:export-filename="/home/damian/path8742.png" />
    <path
       style="opacity:1;fill:#333333;fill-opacity:1;fill-rule:evenodd;stroke:#4d4d4d;stroke-width:0.0015625;stroke-linecap:square;stroke-linejoin:round;stroke-miterlimit:4;stroke-dasharray:none;stroke-dashoffset:0;stroke-opacity:1;paint-order:fill markers stroke"
       d="m 157.65503,216.26413 c -0.004,-0.002 -0.007,-0.008 -0.007,-0.0135 0,-0.0212 0.0244,-0.0778 0.0526,-0.12194 0.008,-0.0122 0.0155,-0.0299 0.0171,-0.0393 0.003,-0.0154 0.004,-0.017 0.0153,-0.0174 0.007,-2.3e-4 0.0164,-0.003 0.0213,-0.005 0.0139,-0.007 0.0235,0.004 0.0192,0.0238 -0.002,0.008 -0.003,0.0231 -0.003,0.0332 7.9e-4,0.0215 -0.0126,0.049 -0.0257,0.0523 -0.005,0.001 -0.013,0.01 -0.0185,0.0195 -0.0283,0.0493 -0.057,0.0767 -0.0718,0.0685 z m 0.0299,-0.0364 c 0.007,-0.009 0.0191,-0.0267 0.0268,-0.0394 0.0124,-0.0206 0.0134,-0.0245 0.009,-0.0354 -0.003,-0.007 -0.006,-0.0123 -0.008,-0.0123 -0.005,0 -0.0447,0.0834 -0.0421,0.0877 0.001,0.002 1e-5,0.006 -0.003,0.01 -0.003,0.004 -0.003,0.006 -8e-4,0.006 0.002,0 0.0101,-0.007 0.0172,-0.0163 z m 0.0751,-0.0768 0.01,-0.0187 -0.0138,-0.0108 c -0.0109,-0.009 -0.0132,-0.0128 -0.0113,-0.0207 0.005,-0.0187 -0.0147,-0.0371 -0.02,-0.019 -0.01,0.0329 -0.008,0.0598 0.006,0.0771 0.0119,0.0151 0.0177,0.0135 0.029,-0.008 z"
       id="path9115"
       inkscape:connector-curvature="0"
       inkscape:export-xdpi="100"
       inkscape:export-ydpi="100"
       inkscape:export-filename="/home/damian/path8742.png" />
    <path
       style="opacity:1;fill:#333333;fill-opacity:1;fill-rule:evenodd;stroke:#4d4d4d;stroke-width:0.0015625;stroke-linecap:square;stroke-linejoin:round;stroke-miterlimit:4;stroke-dasharray:none;stroke-dashoffset:0;stroke-opacity:1;paint-order:fill markers stroke"
       d="m 156.09969,217.72774 c -0.0726,-0.003 -0.20504,-0.0108 -0.31729,-0.0189 l -0.0362,-0.003 v -1.69231 -1.69231 l 0.61495,-4e-5 c 1.15835,-1e-4 1.23521,-0.006 1.91889,-0.14085 0.26517,-0.0524 0.47567,-0.0928 0.57915,-0.11119 0.0398,-0.007 0.0812,-0.0146 0.0921,-0.0168 0.0531,-0.0106 0.1007,-0.0503 0.17194,-0.14322 0.0372,-0.0486 0.054,-0.0571 0.0542,-0.0277 9e-5,0.0131 0.0152,0.0298 0.0308,0.0341 0.0204,0.006 0.0491,-10e-4 0.0782,-0.0188 0.0475,-0.0286 0.32246,-0.21008 0.49876,-0.32915 l 0.17567,-0.11865 h 2.16527 2.16526 v 0.62534 0.62534 l -0.0775,0.0349 c -0.10044,0.0452 -0.34868,0.16916 -0.45165,0.22555 -0.52716,0.28866 -1.01131,0.63967 -1.46737,1.06382 -0.28498,0.26504 -0.74544,0.76672 -0.85866,0.93554 -0.056,0.0834 -0.10786,0.13857 -0.14306,0.15195 -0.0872,0.0331 -2.44646,0.37722 -3.48818,0.50871 -0.51206,0.0646 -0.84659,0.095 -1.18442,0.1076 -0.12723,0.005 -0.39835,0.005 -0.5209,-2.7e-4 z m 0.83487,-0.25624 c 0.0192,-0.0168 0.0468,-0.0588 0.0699,-0.10642 0.0221,-0.0453 0.0278,-0.0724 0.0175,-0.0827 -0.006,-0.006 -0.008,-0.006 -0.018,-5.3e-4 -0.019,0.0107 -0.0497,0.0532 -0.0758,0.10517 -0.026,0.0516 -0.0336,0.08 -0.0245,0.091 0.008,0.009 0.0146,0.008 0.0308,-0.007 z m 0.74625,-1.21348 c 0.0117,-0.01 0.0443,-0.0528 0.0515,-0.0677 0.003,-0.007 -0.002,-5.3e-4 -0.0296,0.0367 -0.0108,0.0145 -0.0248,0.0294 -0.0312,0.0331 -0.011,0.006 -0.012,0.006 -0.0176,-0.001 -0.003,-0.004 -0.006,-0.006 -0.006,-0.004 0,0.006 0.009,0.014 0.015,0.014 0.003,0 0.0108,-0.005 0.0179,-0.0108 z m -0.0302,-0.0233 c -0.001,-0.003 -0.002,-5.3e-4 -0.002,0.005 0,0.006 0.001,0.008 0.002,0.005 0.001,-0.003 0.001,-0.007 0,-0.0103 z m 0.0352,-0.007 c 0.008,-0.009 0.0171,-0.0224 0.0213,-0.03 0.009,-0.0157 0.003,-0.009 -0.0171,0.0192 -0.0161,0.023 -0.0224,0.0225 -0.008,-5.3e-4 0.0138,-0.0222 0.0173,-0.0298 0.009,-0.02 -0.004,0.005 -0.008,0.008 -0.0103,0.007 -0.005,-0.001 -0.0138,0.0263 -0.0106,0.0315 0.001,0.002 5e-5,0.005 -0.003,0.006 -0.004,0.001 -0.004,0.002 -2.7e-4,0.002 0.003,1.8e-4 0.011,-0.007 0.0186,-0.0158 z m -0.005,-0.0614 c 0.005,-0.01 0.008,-0.0176 0.007,-0.0176 -0.003,0 -0.035,0.0682 -0.0348,0.075 1e-4,0.003 0.004,-0.005 0.01,-0.0171 0.005,-0.0125 0.0135,-0.0307 0.0185,-0.0403 z m 0.0352,-0.003 c 0.008,-0.0125 0.0135,-0.0227 0.0115,-0.0227 -0.002,0 -0.003,-0.009 -0.002,-0.0205 10e-4,-0.0148 2.3e-4,-0.0222 -0.004,-0.0267 -0.006,-0.006 -0.006,-0.003 -0.004,0.0204 0.001,0.018 5.3e-4,0.0267 -0.002,0.0267 -0.002,0 -0.007,0.004 -0.009,0.009 -0.004,0.008 -0.004,0.009 0.001,0.002 0.0108,-0.0133 0.0112,-0.002 7.9e-4,0.0161 -0.0147,0.0251 -0.0101,0.0223 0.008,-0.005 z m -0.0206,0.0122 c 10e-4,-0.004 7.9e-4,-0.005 -0.002,-0.004 -0.002,0.001 -0.004,0.004 -0.004,0.006 0,0.006 0.003,0.005 0.006,-0.003 z m 0.0266,-0.004 c -0.001,-10e-4 -0.004,0.001 -0.005,0.005 -0.002,0.006 -0.002,0.006 0.002,0.002 0.003,-0.003 0.004,-0.006 0.003,-0.007 z m 0.0411,-0.0101 c 0.007,-0.0106 0.009,-0.0189 0.009,-0.0369 -5.3e-4,-0.0156 -0.001,-0.0186 -0.002,-0.009 l -0.002,0.0139 -0.0101,-0.009 c -0.006,-0.006 -0.0101,-0.0141 -0.0101,-0.0211 0,-0.006 -0.002,-0.0117 -0.004,-0.0117 -0.007,0 5.3e-4,0.0267 0.0107,0.0353 0.0117,0.01 0.0118,0.011 0.003,0.0292 -0.007,0.0147 -0.0167,0.0184 -0.0208,0.008 -0.001,-0.003 -0.004,-0.006 -0.007,-0.006 -0.002,0 -10e-4,0.004 0.003,0.008 0.004,0.005 0.0104,0.008 0.0141,0.008 0.006,6e-5 0.006,5.3e-4 2.7e-4,0.004 -0.005,0.004 -0.005,0.004 0,0.003 0.003,-7.9e-4 0.0104,-0.008 0.0155,-0.0154 z m -0.0651,-0.0249 c 0.002,-0.005 0.004,-0.008 0.002,-0.008 -0.001,0 -0.004,0.004 -0.006,0.008 -0.002,0.005 -0.003,0.008 -0.002,0.008 10e-4,0 0.004,-0.004 0.006,-0.008 z m 0.0165,-0.0304 c 0,-0.005 -0.002,-0.003 -0.008,0.01 -0.005,0.01 -0.005,0.01 0.002,0.002 0.004,-0.004 0.006,-0.01 0.006,-0.0121 z m 0.0563,-0.0391 c -0.005,-0.005 -0.008,-0.005 -0.0158,-0.002 -0.009,0.004 -0.009,0.004 0.003,0.004 0.0115,-5.3e-4 0.0125,5.3e-4 0.0143,0.0159 l 0.002,0.0165 0.002,-0.014 c 0.001,-0.009 -8e-4,-0.0163 -0.005,-0.0203 z m -0.0423,0.018 c -0.002,-0.004 6e-5,-0.006 0.006,-0.004 0.006,0.001 0.008,-1.1e-4 0.006,-0.004 -0.003,-0.007 -0.0161,-0.008 -0.0198,-0.002 -0.003,0.005 0.002,0.0169 0.006,0.0169 0.002,0 0.003,-0.003 0.001,-0.006 z m 0.32917,-0.43886 c 0.0307,-0.0278 0.0813,-0.11558 0.0902,-0.1568 0.007,-0.0302 -0.005,-0.0425 -0.026,-0.0285 -0.0202,0.0132 -0.0635,0.0791 -0.0844,0.12827 -0.0166,0.0391 -0.0195,0.0564 -0.0108,0.0651 0.01,0.01 0.0123,0.009 0.031,-0.008 z m 0.13542,-0.22707 c 0.0198,-0.0139 0.0654,-0.0858 0.0845,-0.13339 0.0149,-0.0371 0.0148,-0.06 -2e-4,-0.0621 -0.007,-0.001 -0.0143,0.003 -0.0241,0.0124 -0.044,0.0424 -0.10313,0.16517 -0.0882,0.18313 0.007,0.008 0.0165,0.008 0.0281,-2e-5 z m 0.23444,-0.37564 c 0.0293,-0.0223 0.0892,-0.1269 0.0955,-0.1668 0.003,-0.0192 -0.002,-0.03 -0.0149,-0.03 -0.0184,0 -0.076,0.0822 -0.0997,0.14234 -0.0124,0.0315 -0.0147,0.0515 -0.007,0.0594 0.007,0.007 0.0111,0.006 0.0259,-0.005 z m 0.15049,-0.24418 c 0.0342,-0.0371 0.081,-0.1244 0.0858,-0.1599 0.002,-0.0164 0.001,-0.0199 -0.005,-0.0236 -0.0125,-0.007 -0.0307,0.007 -0.0552,0.0415 -0.0406,0.0573 -0.0725,0.13327 -0.0645,0.15402 0.005,0.0123 0.0217,0.007 0.0394,-0.0121 z m 0.13343,-0.24197 c 0.0846,-0.1034 0.12131,-0.15854 0.17145,-0.25761 0.0334,-0.0661 0.0384,-0.0808 0.0281,-0.0843 -0.007,-0.002 -0.10158,0.11653 -0.14513,0.1817 -0.0414,0.062 -0.11079,0.19438 -0.107,0.20425 0.004,0.0114 0.0135,0.004 0.0526,-0.0441 z"
       id="path9117"
       inkscape:connector-curvature="0"
       inkscape:export-xdpi="100"
       inkscape:export-ydpi="100"
       inkscape:export-filename="/home/damian/path8742.png" />
    <path
       style="opacity:1;fill:#333333;fill-opacity:1;fill-rule:evenodd;stroke:#4d4d4d;stroke-width:0.0015625;stroke-linecap:square;stroke-linejoin:round;stroke-miterlimit:4;stroke-dasharray:none;stroke-dashoffset:0;stroke-opacity:1;paint-order:fill markers stroke"
       d="m 156.15344,217.72757 c -0.0999,-0.003 -0.37893,-0.0183 -0.39791,-0.0224 l -0.009,-0.002 v -1.69077 -1.69078 l 0.63148,-4e-5 c 0.76757,-5e-5 0.96112,-0.004 1.19373,-0.0252 0.18348,-0.0166 0.36299,-0.0454 0.69246,-0.11122 0.033,-0.007 0.10925,-0.0215 0.1695,-0.0332 0.0603,-0.0117 0.13746,-0.0267 0.17157,-0.0334 0.0341,-0.007 0.11782,-0.0224 0.18603,-0.0349 0.15776,-0.0289 0.17812,-0.0334 0.19856,-0.0433 0.0287,-0.0139 0.0697,-0.0512 0.10759,-0.0978 0.0446,-0.0549 0.064,-0.0758 0.0705,-0.0758 0.003,0 0.007,0.008 0.0105,0.0172 0.008,0.0234 0.0236,0.0346 0.0484,0.0339 0.0271,-7.9e-4 0.0403,-0.007 0.11925,-0.0577 0.0751,-0.048 0.43549,-0.28759 0.54759,-0.36401 l 0.0688,-0.0469 h 2.16462 2.16462 l -0.001,0.62481 -0.001,0.6248 -0.0951,0.0442 c -0.4727,0.21966 -0.88859,0.46798 -1.29398,0.77262 -0.36151,0.27166 -0.6752,0.55628 -1.01913,0.92468 -0.21933,0.23492 -0.36949,0.41022 -0.45466,0.53075 -0.0421,0.0595 -0.0845,0.10767 -0.11092,0.12602 -0.0245,0.017 -0.0352,0.0193 -0.25497,0.056 -0.12103,0.0202 -0.49628,0.078 -0.74001,0.11386 -0.0227,0.003 -0.10552,0.0156 -0.18397,0.0271 -0.74725,0.11012 -1.77487,0.25399 -2.21588,0.31021 -0.25368,0.0323 -0.36185,0.0453 -0.5147,0.0618 -0.0637,0.007 -0.1325,0.0143 -0.15296,0.0165 -0.14329,0.0155 -0.45153,0.0372 -0.62012,0.0436 -0.0988,0.004 -0.35687,0.004 -0.47956,0.001 z m 0.7861,-0.26088 c 0.0383,-0.0401 0.0883,-0.13536 0.0883,-0.16847 0,-0.017 -0.0103,-0.0239 -0.0241,-0.0162 -0.0288,0.0162 -0.0973,0.13092 -0.10282,0.17225 -0.005,0.0337 0.0129,0.0393 0.0386,0.0124 z m 0.74151,-1.20887 c 0.0176,-0.0148 0.0591,-0.0717 0.0523,-0.0717 -7.9e-4,0 -0.0112,0.0129 -0.0229,0.0286 -0.0117,0.0157 -0.0271,0.0335 -0.0342,0.0394 -0.0122,0.0103 -0.0133,0.0105 -0.0207,0.004 -0.008,-0.008 -0.0109,-0.002 -0.003,0.006 0.007,0.007 0.0137,0.006 0.0282,-0.006 z m -0.0304,-0.0231 c -0.001,-0.003 -0.002,-5.3e-4 -0.002,0.005 0,0.006 0.001,0.008 0.002,0.005 10e-4,-0.003 10e-4,-0.007 0,-0.0103 z m 0.0417,-0.0149 c 0.01,-0.0119 0.0176,-0.0237 0.0176,-0.0263 0,-0.003 -0.006,0.003 -0.0129,0.0128 -0.0156,0.0212 -0.0197,0.0201 -0.008,-0.002 0.009,-0.016 0.009,-0.016 1.7e-4,-0.006 -0.005,0.005 -0.009,0.008 -0.009,0.006 -2.4e-4,-0.007 -0.009,0.0123 -0.0125,0.0263 -0.004,0.019 0.002,0.0162 0.024,-0.0107 z m -0.0257,-0.0202 c 0.0176,-0.0377 0.0229,-0.0506 0.0206,-0.0506 -0.003,0 -0.0289,0.0522 -0.0329,0.0651 -0.005,0.0171 0.001,0.01 0.0123,-0.0145 z m 0.0493,-0.035 c 0.008,-0.0118 0.0131,-0.0225 0.0115,-0.0238 -0.002,-0.001 -0.003,-0.0123 -0.003,-0.0247 0,-0.0123 -0.002,-0.023 -0.004,-0.0237 -0.002,-7.9e-4 -0.007,0.007 -0.0113,0.0162 -0.005,0.0124 -0.005,0.0152 -0.001,0.01 0.006,-0.007 0.006,-0.007 0.009,0.003 0.002,0.007 5.3e-4,0.0135 -0.003,0.0181 -0.003,0.004 -0.008,0.01 -0.01,0.0133 -0.003,0.005 -0.003,0.005 0.003,5.3e-4 0.009,-0.007 0.009,-0.004 -0.001,0.0162 -0.0116,0.0228 -0.007,0.0204 0.0102,-0.005 z m -0.0184,0.009 c 0,-0.002 -0.002,-0.003 -0.004,-0.002 -0.002,0.001 -0.004,0.004 -0.004,0.007 0,0.002 0.002,0.003 0.004,0.002 0.002,-0.001 0.004,-0.004 0.004,-0.007 z m 0.024,-0.002 c -0.001,-10e-4 -0.004,0.001 -0.005,0.005 -0.002,0.006 -0.002,0.006 0.002,0.002 0.003,-0.003 0.004,-0.006 0.003,-0.007 z m 0.0411,-0.0101 c 0.007,-0.01 0.009,-0.0193 0.009,-0.0328 -2.6e-4,-0.0105 -0.001,-0.0158 -0.002,-0.0118 -0.001,0.004 -0.004,0.007 -0.006,0.007 -0.005,0 -0.0164,-0.0221 -0.0164,-0.0308 0,-0.004 -0.002,-0.006 -0.004,-0.006 -0.01,0 5.3e-4,0.0299 0.0139,0.0409 0.007,0.006 0.002,0.0252 -0.008,0.0342 -0.005,0.004 -0.007,0.004 -0.0102,-0.002 -0.002,-0.004 -0.006,-0.007 -0.009,-0.007 -0.003,8e-5 4e-5,0.005 0.006,0.01 0.006,0.005 0.01,0.0112 0.008,0.0128 -0.002,0.002 -5e-5,0.002 0.003,0.001 0.003,-0.001 0.0104,-0.008 0.0155,-0.0156 z m -0.0619,-0.0314 c -0.001,-0.001 -0.005,0.002 -0.007,0.007 -0.005,0.009 -0.005,0.009 0.003,0.003 0.004,-0.004 0.006,-0.008 0.005,-0.01 z m 0.0696,-0.0631 c -0.005,-0.005 -0.008,-0.005 -0.0158,-0.001 -0.009,0.005 -0.009,0.005 0.002,0.003 0.0105,-0.001 0.0117,-2.1e-4 0.0144,0.0154 l 0.003,0.017 10e-4,-0.014 c 7.9e-4,-0.009 -10e-4,-0.0164 -0.005,-0.0204 z m -0.0398,0.0199 c 0,-0.002 0.003,-0.004 0.007,-0.004 0.009,0 0.005,-0.01 -0.004,-0.0117 -0.009,-0.002 -0.0165,0.005 -0.0133,0.0135 0.003,0.007 0.011,0.009 0.011,0.002 z m 0.33137,-0.44545 c 0.0249,-0.0268 0.041,-0.0509 0.0631,-0.0949 0.0213,-0.0425 0.0284,-0.0679 0.0229,-0.0823 -0.009,-0.0227 -0.0336,-0.006 -0.0675,0.0453 -0.0425,0.0643 -0.0658,0.12197 -0.0571,0.14114 0.007,0.0155 0.0181,0.0128 0.0386,-0.009 z m 0.1425,-0.23448 c 0.0228,-0.0237 0.0649,-0.095 0.0761,-0.12866 0.0237,-0.0711 -0.0111,-0.0742 -0.0583,-0.005 -0.0225,0.0328 -0.0526,0.0942 -0.0583,0.11881 -0.009,0.0377 0.0116,0.0452 0.0405,0.015 z m 0.22476,-0.36454 c 0.0293,-0.0246 0.0891,-0.13061 0.0939,-0.1663 0.002,-0.0183 -0.003,-0.0295 -0.015,-0.0295 -0.025,0 -0.10356,0.12468 -0.11049,0.17528 -0.004,0.0313 0.009,0.0397 0.0315,0.0205 z m 0.15155,-0.24678 c 0.037,-0.0408 0.0837,-0.13114 0.084,-0.16278 2e-4,-0.0183 -0.0108,-0.0239 -0.0273,-0.0139 -0.0424,0.0258 -0.11762,0.17629 -0.0979,0.19597 0.008,0.008 0.0226,10e-4 0.0413,-0.0193 z m 0.10342,-0.20633 c 0.0521,-0.0543 0.13348,-0.16763 0.17581,-0.24495 0.0463,-0.0846 0.0637,-0.13022 0.0496,-0.13022 -0.009,0 -0.10862,0.12766 -0.15061,0.19223 -0.0475,0.0731 -0.10599,0.18713 -0.10049,0.19603 0.004,0.007 0.008,0.005 0.0257,-0.0131 z"
       id="path9119"
       inkscape:connector-curvature="0"
       inkscape:export-xdpi="100"
       inkscape:export-ydpi="100"
       inkscape:export-filename="/home/damian/path8742.png" />
    <path
       style="opacity:1;fill:#333333;fill-opacity:1;fill-rule:evenodd;stroke:#4d4d4d;stroke-width:0.0015625;stroke-linecap:square;stroke-linejoin:round;stroke-miterlimit:4;stroke-dasharray:none;stroke-dashoffset:0;stroke-opacity:1;paint-order:fill markers stroke"
       d="m 158.04066,215.63495 c 0,-0.002 0.006,-0.0118 0.0125,-0.0229 0.007,-0.0112 0.0113,-0.0231 0.01,-0.0267 -0.003,-0.007 0.02,-0.0482 0.0436,-0.0807 0.0141,-0.0194 0.0221,-0.0212 0.01,-0.002 -0.004,0.006 -0.005,0.0101 -0.002,0.008 0.008,-0.005 0.006,0.004 -0.008,0.0315 -0.0214,0.0428 -0.0657,0.10514 -0.0657,0.0926 z m 0.0331,-0.0565 c 0.002,-0.005 0.003,-0.008 0.002,-0.008 -0.001,0 -0.004,0.004 -0.006,0.008 -0.002,0.005 -0.003,0.008 -0.002,0.008 0.001,0 0.004,-0.004 0.006,-0.008 z m 0.0281,-0.0472 c 0.005,-0.009 0.006,-0.0124 0.002,-0.007 -0.004,0.006 -0.0117,0.0176 -0.0169,0.0269 -0.005,0.009 -0.006,0.0124 -0.002,0.007 0.004,-0.006 0.0117,-0.0176 0.0169,-0.0269 z"
       id="path9121"
       inkscape:connector-curvature="0"
       inkscape:export-xdpi="100"
       inkscape:export-ydpi="100"
       inkscape:export-filename="/home/damian/path8742.png" />
    <path
       style="opacity:1;fill:#333333;fill-opacity:1;fill-rule:evenodd;stroke:#4d4d4d;stroke-width:0.0015625;stroke-linecap:square;stroke-linejoin:round;stroke-miterlimit:4;stroke-dasharray:none;stroke-dashoffset:0;stroke-opacity:1;paint-order:fill markers stroke"
       d="m 158.04494,215.63048 c -8e-5,-0.002 0.005,-0.0121 0.0107,-0.0223 0.006,-0.0102 0.009,-0.0172 0.006,-0.0156 -0.008,0.005 -0.005,-0.004 0.009,-0.0301 0.0242,-0.0429 0.0505,-0.078 0.0423,-0.0564 -0.001,0.003 -5.3e-4,0.006 0.002,0.006 0.006,0 -0.005,0.0248 -0.0289,0.0634 -0.0214,0.0352 -0.0412,0.0613 -0.0414,0.0548 z m 0.0288,-0.052 c 0.002,-0.005 0.003,-0.008 0.002,-0.008 -0.001,0 -0.004,0.004 -0.006,0.008 -0.002,0.005 -0.003,0.008 -0.002,0.008 0.001,0 0.004,-0.004 0.006,-0.008 z m 0.033,-0.0568 c -5e-5,-0.002 -0.006,0.006 -0.0124,0.0165 -0.007,0.0108 -0.0123,0.021 -0.0123,0.0227 4e-5,0.002 0.006,-0.006 0.0124,-0.0165 0.007,-0.0108 0.0123,-0.021 0.0122,-0.0227 z"
       id="path9123"
       inkscape:connector-curvature="0"
       inkscape:export-xdpi="100"
       inkscape:export-ydpi="100"
       inkscape:export-filename="/home/damian/path8742.png" />
    <path
       style="opacity:1;fill:#333333;fill-opacity:1;fill-rule:evenodd;stroke:#4d4d4d;stroke-width:0.0015625;stroke-linecap:square;stroke-linejoin:round;stroke-miterlimit:4;stroke-dasharray:none;stroke-dashoffset:0;stroke-opacity:1;paint-order:fill markers stroke"
       d="m 158.16744,215.42272 c -0.007,-0.007 -0.002,-0.0371 0.01,-0.0647 0.0282,-0.0665 0.0801,-0.13787 0.0976,-0.13442 0.0212,0.004 0.0167,0.0327 -0.0152,0.0964 -0.0359,0.0718 -0.0772,0.11775 -0.0923,0.10266 z m 0.0488,-0.0609 c 0.0273,-0.041 0.0479,-0.0838 0.0446,-0.0924 -0.001,-0.004 -7.9e-4,-0.005 0.002,-0.004 0.002,0.001 0.004,2.7e-4 0.004,-0.002 1e-4,-0.003 0.002,-0.009 0.003,-0.0133 0.007,-0.0169 -0.0186,0.0112 -0.0401,0.0449 -0.0243,0.0379 -0.0443,0.0802 -0.0464,0.0979 -0.002,0.0173 0.005,0.0107 0.0325,-0.0308 z"
       id="path9125"
       inkscape:connector-curvature="0"
       inkscape:export-xdpi="100"
       inkscape:export-ydpi="100"
       inkscape:export-filename="/home/damian/path8742.png" />
    <path
       style="opacity:1;fill:#333333;fill-opacity:1;fill-rule:evenodd;stroke:#4d4d4d;stroke-width:0.0015625;stroke-linecap:square;stroke-linejoin:round;stroke-miterlimit:4;stroke-dasharray:none;stroke-dashoffset:0;stroke-opacity:1;paint-order:fill markers stroke"
       d="m 156.15137,217.72713 c -10e-4,-10e-4 -0.0404,-0.003 -0.0872,-0.005 -0.0468,-0.002 -0.0933,-0.004 -0.10335,-0.005 -0.0101,-0.001 -0.0527,-0.004 -0.0947,-0.006 -0.0421,-0.002 -0.0863,-0.005 -0.0982,-0.007 l -0.0217,-0.002 v -1.69001 -1.69001 l 0.75137,-0.002 c 0.4665,-0.001 0.78429,-0.004 0.8382,-0.007 0.31554,-0.0166 0.48039,-0.0393 0.93431,-0.1286 0.18924,-0.0372 0.37942,-0.0739 0.46095,-0.0889 0.17553,-0.0324 0.24501,-0.0476 0.26436,-0.0582 0.028,-0.0152 0.0662,-0.0509 0.10541,-0.0984 0.019,-0.0231 0.0422,-0.0492 0.0514,-0.0581 l 0.0168,-0.0162 0.008,0.0188 c 0.014,0.0326 0.0378,0.0419 0.0752,0.0293 0.031,-0.0105 0.0905,-0.0484 0.42412,-0.27093 l 0.29002,-0.19339 h 2.16242 2.16242 l -0.002,0.62115 c -0.001,0.34164 -0.003,0.62305 -0.004,0.62537 -7.9e-4,0.002 -0.0391,0.0218 -0.0854,0.0432 -0.63725,0.29521 -1.20144,0.66232 -1.73171,1.12678 -0.1342,0.11755 -0.18842,0.16891 -0.36387,0.34464 -0.29511,0.29561 -0.51669,0.54278 -0.6666,0.74358 -0.0923,0.12367 -0.11704,0.14739 -0.1663,0.15963 -0.0266,0.007 -0.1545,0.0294 -0.24598,0.0438 -0.0307,0.005 -0.0846,0.0134 -0.11989,0.019 -0.2328,0.0369 -0.4457,0.069 -0.80615,0.12155 -0.0944,0.0138 -0.20226,0.0296 -0.23978,0.0352 -0.1006,0.015 -0.70599,0.10138 -0.91364,0.13033 -0.35383,0.0493 -0.3807,0.053 -0.58291,0.0806 -0.0739,0.0101 -0.14831,0.0203 -0.16536,0.0227 -0.35291,0.05 -0.91661,0.11468 -1.15135,0.13217 -0.0614,0.005 -0.12414,0.009 -0.13943,0.0107 -0.11469,0.01 -0.26463,0.0151 -0.49309,0.0171 -0.14325,0.001 -0.26138,0.001 -0.26252,2.6e-4 z m 0.78661,-0.25909 c 0.0344,-0.0319 0.0897,-0.13425 0.0898,-0.16621 6e-5,-0.0168 -0.008,-0.0262 -0.0196,-0.0225 -0.0182,0.006 -0.0583,0.0607 -0.0878,0.12013 -0.018,0.0364 -0.0234,0.0572 -0.019,0.0743 0.004,0.0153 0.0162,0.0134 0.0367,-0.006 z m 0.75397,-1.22119 c 0.0237,-0.026 0.0449,-0.0558 0.0419,-0.0589 -10e-4,-0.001 -0.0138,0.0126 -0.0281,0.0307 -0.0293,0.0371 -0.0415,0.0461 -0.0515,0.0379 -0.007,-0.006 -0.009,7e-5 -10e-4,0.007 0.009,0.009 0.019,0.005 0.0391,-0.017 z m -0.0413,-0.0121 c -0.001,-0.003 -0.002,-5.3e-4 -0.002,0.005 0,0.006 0.001,0.008 0.002,0.005 10e-4,-0.003 10e-4,-0.007 0,-0.0103 z m 0.0475,-0.0213 c 0.0144,-0.0197 0.0157,-0.03 0.002,-0.0128 -0.0107,0.0131 -0.0136,0.0116 -0.006,-0.003 0.005,-0.008 0.004,-0.008 -0.007,5.3e-4 -0.0121,0.01 -0.0241,0.0353 -0.0197,0.0425 0.003,0.005 0.0158,-0.006 0.0311,-0.0272 z m -0.0249,-0.0257 c 0.017,-0.0367 0.0194,-0.05 0.005,-0.0248 -0.01,0.0168 -0.0257,0.0517 -0.0257,0.0569 0,0.01 0.006,5.3e-4 0.0211,-0.032 z m 0.0454,-0.025 c 0.007,-0.0118 0.008,-0.0191 0.007,-0.0427 -0.002,-0.0264 -7.9e-4,-0.0289 0.008,-0.0336 0.0118,-0.006 0.01,-0.0139 -0.003,-0.0139 -0.007,0 -0.01,0.002 -0.0101,0.008 -9e-5,0.005 -0.003,0.0129 -0.007,0.0185 -0.008,0.011 -0.01,0.0227 -0.003,0.0186 0.007,-0.004 0.005,0.0212 -0.002,0.0269 -0.007,0.006 -0.009,0.0144 -0.002,0.0103 0.006,-0.004 0.005,0.002 -0.002,0.0145 -0.0137,0.024 -2.7e-4,0.0178 0.0149,-0.007 z m -0.0211,0.0105 c 0,-0.002 -0.002,-0.003 -0.004,-0.002 -0.002,0.001 -0.004,0.004 -0.004,0.007 0,0.002 0.002,0.003 0.004,0.002 0.002,-0.001 0.004,-0.004 0.004,-0.007 z m 0.0248,0 c 0,-0.002 -0.002,-0.003 -0.004,-0.002 -0.002,0.001 -0.004,0.004 -0.004,0.007 0,0.002 0.002,0.003 0.004,0.002 0.002,-0.001 0.004,-0.004 0.004,-0.007 z m 0.0403,-0.0118 c 0.0111,-0.0164 0.0132,-0.0468 0.003,-0.0429 -0.005,0.002 -0.008,-0.002 -0.0135,-0.0146 -0.004,-0.009 -0.009,-0.017 -0.0107,-0.017 -0.006,-7e-5 8e-4,0.024 0.0103,0.037 0.008,0.0108 0.008,0.0135 0.004,0.0248 -0.005,0.0125 -0.0138,0.0165 -0.0187,0.009 -0.001,-0.002 -0.005,-0.004 -0.007,-0.004 -0.003,7e-5 7e-5,0.005 0.006,0.01 0.006,0.005 0.01,0.0112 0.008,0.0128 -0.002,0.002 -4e-5,0.002 0.003,0.001 0.003,-0.001 0.0104,-0.008 0.0155,-0.0156 z m -0.061,-0.0301 c 0,-0.002 -0.003,-0.002 -0.006,0.001 -0.003,0.003 -0.006,0.007 -0.006,0.009 0,0.002 0.003,0.002 0.006,-10e-4 0.003,-0.003 0.006,-0.007 0.006,-0.009 z m 0.0687,-0.0644 c -0.005,-0.005 -0.008,-0.005 -0.0158,-0.002 l -0.009,0.005 0.0109,2.6e-4 c 0.009,2.4e-4 0.0114,0.003 0.0143,0.0158 l 0.003,0.0155 0.002,-0.014 c 0.001,-0.009 -7.9e-4,-0.0164 -0.005,-0.0203 z m 0.29647,-0.43068 c 0.0441,-0.0477 0.0925,-0.14882 0.082,-0.17172 -0.01,-0.022 -0.0342,-0.007 -0.067,0.0416 -0.025,0.0371 -0.0516,0.0892 -0.0584,0.11455 -0.006,0.0225 -5.3e-4,0.0403 0.0125,0.0403 0.004,0 0.0182,-0.0111 0.0308,-0.0248 z m 0.10158,-0.21828 c -0.004,-0.007 -2.7e-4,-0.0304 0.0104,-0.0608 0.002,-0.005 5.3e-4,-0.004 -0.003,0.002 -0.0149,0.0254 -0.019,0.0661 -0.007,0.0661 0.002,0 0.002,-0.003 -5.3e-4,-0.007 z m 0.0335,-0.008 c 0.009,-0.009 0.0264,-0.0318 0.0387,-0.0517 0.0458,-0.0737 0.0609,-0.13154 0.0352,-0.13452 -0.009,-0.001 -0.0153,0.004 -0.0331,0.023 -0.0198,0.0215 -0.0617,0.0885 -0.0616,0.0985 3e-5,0.002 0.007,-0.008 0.0149,-0.023 0.0464,-0.0834 0.0843,-0.11729 0.0875,-0.0784 0.003,0.0344 -0.063,0.15377 -0.096,0.17388 -0.007,0.004 -0.0103,0.008 -0.007,0.008 0.003,0 0.0127,-0.007 0.0216,-0.0155 z m -0.006,-0.0183 c 0.004,-0.005 0.006,-0.008 0.003,-0.006 -0.004,0.002 -0.005,-0.002 -0.004,-0.0148 l 0.001,-0.0177 -0.008,0.0165 c -0.013,0.0279 -0.009,0.0403 0.007,0.022 z m 0.0236,-0.032 c 0.011,-0.0188 0.006,-0.0155 -0.008,0.005 -0.006,0.01 -0.009,0.0154 -0.006,0.0127 0.003,-0.003 0.009,-0.0106 0.0133,-0.0176 z m -0.006,-0.0107 c 0.005,-0.009 0.006,-0.0128 0.002,-0.008 -0.008,0.009 -0.0218,0.0354 -0.0156,0.0289 0.002,-0.002 0.008,-0.0116 0.0132,-0.0207 z m 0.021,-0.0145 c 0.002,-0.005 0.003,-0.008 0.002,-0.008 -0.001,0 -0.004,0.004 -0.006,0.008 -0.002,0.005 -0.004,0.008 -0.002,0.008 0.001,0 0.004,-0.004 0.006,-0.008 z m 0.002,-0.0227 c 0.006,-0.0102 0.0126,-0.0176 0.0146,-0.0163 0.002,0.001 0.002,-8e-4 0.001,-0.005 -0.002,-0.004 -0.001,-0.006 10e-4,-0.005 0.005,0.003 0.0205,-0.0373 0.0164,-0.0413 -0.001,-0.001 -0.003,8e-5 -0.003,0.003 0,0.005 -0.009,0.0217 -0.0379,0.0689 -0.005,0.007 -0.007,0.0134 -0.006,0.0134 0.001,0 0.007,-0.008 0.0131,-0.0186 z m -0.0188,0.006 c 0.002,-0.005 0.003,-0.008 0.002,-0.008 -10e-4,0 -0.004,0.004 -0.006,0.008 -0.002,0.005 -0.004,0.008 -0.002,0.008 0.001,0 0.004,-0.004 0.006,-0.008 z m 0.0323,-0.0146 c -0.001,-0.001 -0.004,0.001 -0.005,0.005 -0.002,0.006 -0.002,0.006 0.002,0.002 0.003,-0.003 0.004,-0.006 0.003,-0.007 z m -0.006,-0.0268 c 0.0111,-0.0164 0.0122,-0.0191 0.004,-0.01 -0.006,0.007 -0.0151,0.0193 -0.0194,0.0269 -0.0106,0.0187 -0.003,0.0104 0.0155,-0.0172 z m 0.18637,-0.236 c 0.03,-0.0263 0.0872,-0.12865 0.092,-0.16448 0.002,-0.0183 -0.003,-0.0295 -0.015,-0.0295 -0.0166,0 -0.0627,0.0608 -0.0912,0.1203 -0.018,0.0376 -0.0234,0.0588 -0.0191,0.0759 0.004,0.0144 0.0153,0.0136 0.0333,-0.002 z m 0.14557,-0.24045 c 0.0374,-0.039 0.0838,-0.12452 0.0873,-0.16083 0.002,-0.0161 5.2e-4,-0.02 -0.006,-0.0237 -0.007,-0.004 -0.0111,-0.003 -0.0221,0.005 -0.0442,0.0298 -0.11573,0.1747 -0.096,0.19445 0.007,0.007 0.0217,10e-4 0.0372,-0.0148 z m 0.11361,-0.21705 c 0.0675,-0.0713 0.15084,-0.1942 0.19829,-0.29248 0.0242,-0.0502 0.0305,-0.0721 0.0215,-0.0753 -0.0103,-0.004 -0.12422,0.14399 -0.17211,0.22304 -0.0375,0.0618 -0.083,0.15419 -0.0799,0.16215 0.004,0.0102 0.008,0.008 0.0322,-0.0174 z"
       id="path9127"
       inkscape:connector-curvature="0"
       inkscape:export-xdpi="100"
       inkscape:export-ydpi="100"
       inkscape:export-filename="/home/damian/path8742.png" />
    <path
       style="opacity:1;fill:#333333;fill-opacity:1;fill-rule:evenodd;stroke:#4d4d4d;stroke-width:0.0015625;stroke-linecap:square;stroke-linejoin:round;stroke-miterlimit:4;stroke-dasharray:none;stroke-dashoffset:0;stroke-opacity:1;paint-order:fill markers stroke"
       d="m 158.07787,215.54619 c 0,-0.006 0.032,-0.0524 0.0435,-0.0628 l 0.0114,-0.0103 -0.002,0.0145 c -0.003,0.0162 -0.0229,0.0641 -0.0259,0.0611 -0.001,-0.001 0.001,-0.009 0.005,-0.0176 0.0104,-0.0249 7.9e-4,-0.0265 -0.0145,-0.002 -0.0131,0.0205 -0.0167,0.0242 -0.0167,0.0176 z m 0.0455,-0.0442 c 0,-0.003 -0.002,-0.006 -0.004,-0.006 -0.002,0 -0.003,0.003 -0.002,0.006 0.001,0.003 0.003,0.006 0.004,0.006 7.9e-4,0 0.002,-0.003 0.002,-0.006 z"
       id="path9129"
       inkscape:connector-curvature="0"
       inkscape:export-xdpi="100"
       inkscape:export-ydpi="100"
       inkscape:export-filename="/home/damian/path8742.png" />
    <path
       style="opacity:1;fill:#333333;fill-opacity:1;fill-rule:evenodd;stroke:#4d4d4d;stroke-width:0.00590551;stroke-linecap:square;stroke-linejoin:round;stroke-miterlimit:4;stroke-dasharray:none;stroke-dashoffset:0;stroke-opacity:1;paint-order:fill markers stroke"
       d=""
       id="path9131"
       inkscape:connector-curvature="0"
       transform="matrix(0.26458333,0,0,0.26458333,9.0122271,146.50417)"
       inkscape:export-xdpi="100"
       inkscape:export-ydpi="100"
       inkscape:export-filename="/home/damian/path8742.png" />
    <path
       style="opacity:1;fill:#333333;fill-opacity:1;fill-rule:evenodd;stroke:#4d4d4d;stroke-width:0.0015625;stroke-linecap:square;stroke-linejoin:round;stroke-miterlimit:4;stroke-dasharray:none;stroke-dashoffset:0;stroke-opacity:1;paint-order:fill markers stroke"
       d="m 158.09027,215.56794 c 0,-0.001 0.004,-0.01 0.008,-0.0184 0.0117,-0.023 0.0102,-0.0261 -0.002,-0.005 -0.0103,0.0172 -0.0191,0.0222 -0.0104,0.006 0.003,-0.006 0.003,-0.009 -8e-5,-0.0123 -0.003,-0.003 -0.002,-0.007 0.005,-0.0135 0.009,-0.009 0.009,-0.009 0.0174,-7.9e-4 0.008,0.008 0.008,0.008 -0.003,0.0273 -0.0103,0.0176 -0.0145,0.0225 -0.0145,0.0168 z"
       id="path9133"
       inkscape:connector-curvature="0"
       inkscape:export-xdpi="100"
       inkscape:export-ydpi="100"
       inkscape:export-filename="/home/damian/path8742.png" />
    <path
       style="opacity:1;fill:#333333;fill-opacity:1;fill-rule:evenodd;stroke:#4d4d4d;stroke-width:0.0015625;stroke-linecap:square;stroke-linejoin:round;stroke-miterlimit:4;stroke-dasharray:none;stroke-dashoffset:0;stroke-opacity:1;paint-order:fill markers stroke"
       d="m 156.06869,217.72808 c -0.0739,-0.004 -0.19809,-0.0112 -0.23151,-0.0143 -0.0102,-0.001 -0.0349,-0.003 -0.0548,-0.004 l -0.0362,-0.003 v -1.69187 -1.69188 l 0.7121,-0.003 c 0.39165,-0.002 0.71861,-0.004 0.72657,-0.004 0.008,-8e-4 0.0535,-0.003 0.10129,-0.004 0.0791,-0.002 0.22754,-0.011 0.28938,-0.017 0.10768,-0.0103 0.26121,-0.0308 0.34107,-0.0455 0.0193,-0.004 0.05,-0.009 0.0682,-0.0122 0.0413,-0.007 0.30911,-0.0593 0.47749,-0.0931 0.11509,-0.0231 0.36581,-0.0704 0.43793,-0.0827 0.0599,-0.0102 0.0878,-0.0192 0.1126,-0.0364 0.0188,-0.013 0.0728,-0.0675 0.0903,-0.0912 0.0347,-0.0468 0.0618,-0.0751 0.0719,-0.0751 0.001,0 0.002,0.007 0.002,0.0149 0,0.0115 0.003,0.0182 0.0146,0.0295 0.0141,0.0141 0.0154,0.0146 0.0386,0.0124 0.0132,-0.001 0.0303,-0.005 0.0381,-0.009 0.0318,-0.0162 0.42969,-0.27874 0.62268,-0.41087 l 0.067,-0.0459 h 2.16646 2.16646 l -0.001,0.62658 -0.001,0.62658 -0.0331,0.0144 c -0.11307,0.0493 -0.32063,0.15147 -0.46783,0.23034 -0.24493,0.13124 -0.50775,0.29546 -0.75344,0.47079 -0.0532,0.0379 -0.2322,0.17278 -0.27528,0.20733 -0.10302,0.0826 -0.17713,0.14332 -0.21079,0.17265 -0.007,0.006 -0.0301,0.0262 -0.0517,0.0449 -0.0216,0.0187 -0.0468,0.0408 -0.056,0.0491 -0.009,0.008 -0.0343,0.0308 -0.0558,0.0501 -0.12788,0.11475 -0.38369,0.36973 -0.53727,0.53553 -0.20185,0.21791 -0.39372,0.4446 -0.42158,0.49808 -0.02,0.0385 -0.0933,0.11659 -0.12408,0.13229 -0.0228,0.0116 -0.16888,0.0377 -0.47543,0.0848 -0.083,0.0128 -0.15554,0.0239 -0.16123,0.0249 -0.0234,0.004 -0.20847,0.0319 -0.25838,0.0391 -0.0494,0.007 -0.15515,0.0228 -0.40514,0.06 -0.21355,0.0318 -1.3002,0.1861 -1.36426,0.19373 -0.009,0.001 -0.0575,0.008 -0.10749,0.0146 -0.1574,0.0218 -0.33,0.0453 -0.34933,0.0474 -0.0102,0.001 -0.0676,0.009 -0.12749,0.0168 -0.21599,0.0292 -0.48353,0.0618 -0.7138,0.0869 -0.15245,0.0166 -0.36936,0.0343 -0.59118,0.0482 -0.089,0.006 -0.58404,0.008 -0.68006,0.004 z m 0.85643,-0.25105 c 0.0357,-0.0211 0.10793,-0.15438 0.10023,-0.18506 -0.004,-0.015 -0.02,-0.0136 -0.0358,0.003 -0.0302,0.032 -0.076,0.11358 -0.0859,0.15304 -0.004,0.0139 -0.004,0.0209 -5e-5,0.0274 0.006,0.0105 0.006,0.0105 0.0216,0.002 z m 0.75794,-1.2454 c 0.004,-0.005 0.007,-0.008 0.005,-0.008 -0.001,0 -0.005,0.004 -0.01,0.008 -0.004,0.005 -0.007,0.008 -0.005,0.008 0.001,0 0.005,-0.004 0.01,-0.008 z m -3e-5,-0.0165 c 0.001,-0.002 -2.1e-4,-0.003 -0.004,-0.002 -0.007,0.003 -0.008,0.006 -0.003,0.006 0.002,0 0.005,-0.002 0.006,-0.004 z m 0.044,-0.0155 c 0.005,-0.007 0.005,-0.007 -0.002,-0.002 -0.004,0.003 -0.007,0.006 -0.007,0.007 0,0.003 0.003,0.001 0.009,-0.006 z m -0.008,-0.0413 c 0.005,-0.007 0.005,-0.007 -0.002,-0.002 -0.004,0.003 -0.007,0.006 -0.007,0.007 0,0.003 0.003,0.001 0.009,-0.006 z m 0.052,-0.033 c -0.001,-0.004 -0.002,-0.002 -0.002,0.005 -8e-5,0.007 7.9e-4,0.0101 0.002,0.007 0.001,-0.003 0.001,-0.008 1.6e-4,-0.0124 z m 0.004,-0.0413 c -10e-4,-0.004 -0.002,-0.002 -0.002,0.005 -9e-5,0.007 7.9e-4,0.0101 0.002,0.007 0.001,-0.003 0.001,-0.008 1.5e-4,-0.0124 z m 0.29973,-0.45793 c 0.0341,-0.0426 0.0736,-0.12312 0.0736,-0.15005 0,-0.0156 -0.009,-0.0237 -0.0197,-0.0179 -0.021,0.0112 -0.0575,0.0626 -0.0848,0.11934 -0.0178,0.0369 -0.0238,0.0674 -0.0155,0.0774 0.005,0.005 0.007,0.005 0.0175,-0.001 0.007,-0.004 0.0198,-0.0165 0.0289,-0.0279 z m 0.17489,-0.38241 c 0.004,-0.005 0.007,-0.008 0.005,-0.008 -0.001,0 -0.005,0.004 -0.01,0.008 -0.004,0.005 -0.007,0.008 -0.005,0.008 10e-4,0 0.005,-0.004 0.01,-0.008 z m 0.17105,-0.19672 c 0.0247,-0.0146 0.0864,-0.11454 0.0991,-0.16063 0.008,-0.0297 -0.003,-0.0457 -0.0224,-0.0328 -0.0174,0.0114 -0.0505,0.0594 -0.0738,0.10694 -0.0242,0.0494 -0.0291,0.0668 -0.0231,0.0827 0.005,0.0122 0.006,0.0123 0.0201,0.004 z m 0.13911,-0.23402 c 0.0366,-0.0167 0.11817,-0.17098 0.10117,-0.19146 -0.009,-0.0105 -0.0173,-0.007 -0.0392,0.0156 -0.0456,0.047 -0.10044,0.16971 -0.0797,0.17809 0.003,0.001 0.006,0.002 0.006,0.002 5.2e-4,1.8e-4 0.006,-0.002 0.0117,-0.005 z m 0.16759,-0.27702 c 0.0739,-0.0918 0.13681,-0.19111 0.17187,-0.27141 0.0232,-0.0531 0.018,-0.0597 -0.0159,-0.0202 -0.0835,0.0971 -0.13968,0.18071 -0.19535,0.2908 -0.0281,0.0555 -0.0338,0.0759 -0.0192,0.0681 0.004,-0.002 0.0307,-0.0325 0.0586,-0.0672 z"
       id="path9135"
       inkscape:connector-curvature="0"
       inkscape:export-xdpi="100"
       inkscape:export-ydpi="100"
       inkscape:export-filename="/home/damian/path8742.png" />
    <path
       style="opacity:1;fill:#333333;fill-opacity:1;fill-rule:evenodd;stroke:#4d4d4d;stroke-width:0.0015625;stroke-linecap:square;stroke-linejoin:round;stroke-miterlimit:4;stroke-dasharray:none;stroke-dashoffset:0;stroke-opacity:1;paint-order:fill markers stroke"
       d="m 158.41686,215.02346 c 0,-0.003 0.002,-0.009 0.005,-0.0136 0.0108,-0.0162 0.024,-0.041 0.0176,-0.0332 -0.0236,0.0289 0.0184,-0.0511 0.0458,-0.0871 l 0.009,-0.0118 -0.001,0.0165 c -0.001,0.0172 -0.0143,0.0463 -0.0387,0.0847 -0.0179,0.0281 -0.0382,0.0517 -0.0382,0.0445 z m 0.048,-0.0827 c 0.009,-0.0142 0.0182,-0.03 0.0215,-0.0351 0.003,-0.005 0.005,-0.009 0.004,-0.009 -0.001,0 -0.009,0.0116 -0.0178,0.0258 -0.009,0.0142 -0.0182,0.03 -0.0215,0.0351 -0.003,0.005 -0.005,0.009 -0.004,0.009 0.001,0 0.009,-0.0116 0.0178,-0.0258 z"
       id="path9137"
       inkscape:connector-curvature="0"
       inkscape:export-xdpi="100"
       inkscape:export-ydpi="100"
       inkscape:export-filename="/home/damian/path8742.png" />
    <path
       style="opacity:1;fill:#333333;fill-opacity:1;fill-rule:evenodd;stroke:#4d4d4d;stroke-width:0.0015625;stroke-linecap:square;stroke-linejoin:round;stroke-miterlimit:4;stroke-dasharray:none;stroke-dashoffset:0;stroke-opacity:1;paint-order:fill markers stroke"
       d="m 158.40223,215.049 c -0.004,-0.006 -0.003,-0.0296 2.6e-4,-0.0417 0.006,-0.0208 0.0404,-0.0845 0.0606,-0.11381 0.0233,-0.0336 0.0334,-0.0427 0.0477,-0.0427 0.008,0 0.009,0.002 0.009,0.019 0,0.0343 -0.0572,0.13917 -0.0931,0.17066 -0.0157,0.0138 -0.0206,0.0155 -0.0249,0.008 z m 0.0398,-0.0504 c 0.0341,-0.0481 0.0744,-0.13547 0.0577,-0.12517 -0.002,10e-4 -0.003,0.005 -0.002,0.009 0.002,0.004 5.3e-4,0.005 -0.004,0.004 -0.0102,-0.004 -0.0735,0.0996 -0.0672,0.10986 10e-4,0.002 1.8e-4,0.004 -0.003,0.004 -0.003,0 -0.004,0.001 -0.002,0.003 0.001,0.001 -1.8e-4,0.008 -0.004,0.0145 -0.0116,0.0225 0.002,0.0118 0.0234,-0.0181 z"
       id="path9139"
       inkscape:connector-curvature="0"
       inkscape:export-xdpi="100"
       inkscape:export-ydpi="100"
       inkscape:export-filename="/home/damian/path8742.png" />
    <path
       style="opacity:1;fill:#333333;fill-opacity:1;fill-rule:evenodd;stroke:#4d4d4d;stroke-width:0.0015625;stroke-linecap:square;stroke-linejoin:round;stroke-miterlimit:4;stroke-dasharray:none;stroke-dashoffset:0;stroke-opacity:1;paint-order:fill markers stroke"
       d="m 158.55759,214.7901 c -9e-5,-0.003 0.002,-0.006 0.004,-0.008 0.002,-0.002 0.003,-0.006 0.002,-0.009 -0.003,-0.008 0.0359,-0.0829 0.0594,-0.11397 0.0194,-0.0257 0.0261,-0.0287 0.0142,-0.006 -0.004,0.008 -0.008,0.0187 -0.008,0.0247 -0.001,0.0195 -0.0713,0.12892 -0.0718,0.11232 z m 0.0243,-0.0405 c 0.005,-0.009 0.006,-0.0128 0.002,-0.008 -0.008,0.009 -0.0218,0.0354 -0.0156,0.0289 0.002,-0.002 0.008,-0.0116 0.0132,-0.0207 z m 0.0346,-0.0558 c 0.006,-0.0114 0.0108,-0.0207 0.01,-0.0207 -10e-4,0 -0.007,0.009 -0.0133,0.0196 -0.006,0.0108 -0.0141,0.0243 -0.0174,0.03 l -0.006,0.0103 0.008,-0.009 c 0.004,-0.005 0.0129,-0.0186 0.0193,-0.03 z"
       id="path9141"
       inkscape:connector-curvature="0"
       inkscape:export-xdpi="100"
       inkscape:export-ydpi="100"
       inkscape:export-filename="/home/damian/path8742.png" />
    <path
       style="opacity:1;fill:#333333;fill-opacity:1;fill-rule:evenodd;stroke:#4d4d4d;stroke-width:0.0015625;stroke-linecap:square;stroke-linejoin:round;stroke-miterlimit:4;stroke-dasharray:none;stroke-dashoffset:0;stroke-opacity:1;paint-order:fill markers stroke"
       d="m 158.55834,214.78469 c 5.3e-4,-0.012 0.0352,-0.0893 0.0387,-0.0858 0.001,0.001 -0.002,0.0117 -0.008,0.0233 -0.006,0.0118 -0.008,0.0201 -0.005,0.019 0.003,-10e-4 0.005,0.002 0.006,0.008 2.7e-4,0.007 -0.005,0.0165 -0.0152,0.028 -0.0148,0.0165 -0.0158,0.0169 -0.0155,0.007 z m 0.0216,-0.0252 c -0.001,-0.002 -0.004,-0.003 -0.006,-0.002 -0.002,0.001 -0.003,0.004 -0.002,0.006 10e-4,0.002 0.004,0.003 0.006,0.002 0.002,-0.001 0.003,-0.004 0.002,-0.006 z"
       id="path9143"
       inkscape:connector-curvature="0"
       inkscape:export-xdpi="100"
       inkscape:export-ydpi="100"
       inkscape:export-filename="/home/damian/path8742.png" />
    <path
       style="opacity:1;fill:#333333;fill-opacity:1;fill-rule:evenodd;stroke:#4d4d4d;stroke-width:0.0015625;stroke-linecap:square;stroke-linejoin:round;stroke-miterlimit:4;stroke-dasharray:none;stroke-dashoffset:0;stroke-opacity:1;paint-order:fill markers stroke"
       d="m 158.55742,214.78711 c 0,-0.0144 0.0269,-0.0711 0.0502,-0.10594 0.0244,-0.0365 0.0417,-0.0559 0.0348,-0.0391 -0.002,0.005 -0.003,0.0116 -0.003,0.0156 1.7e-4,0.004 -0.001,0.006 -0.004,0.005 -0.002,-0.001 -0.003,2.7e-4 -0.002,0.004 0.004,0.011 -0.0472,0.10124 -0.0688,0.12081 -0.008,0.007 -0.008,0.007 -0.008,8e-5 z m 0.0413,-0.0644 c 0.002,-0.005 0.004,-0.008 0.002,-0.008 -0.001,0 -0.004,0.004 -0.006,0.008 -0.002,0.005 -0.003,0.008 -0.002,0.008 10e-4,0 0.004,-0.004 0.006,-0.008 z"
       id="path9145"
       inkscape:connector-curvature="0"
       inkscape:export-xdpi="100"
       inkscape:export-ydpi="100"
       inkscape:export-filename="/home/damian/path8742.png" />
    <path
       style="opacity:1;fill:#333333;fill-opacity:1;fill-rule:evenodd;stroke:#4d4d4d;stroke-width:0.0015625;stroke-linecap:square;stroke-linejoin:round;stroke-miterlimit:4;stroke-dasharray:none;stroke-dashoffset:0;stroke-opacity:1;paint-order:fill markers stroke"
       d="m 158.71866,214.51321 c 0,-0.0102 0.0861,-0.1482 0.09,-0.14428 0.001,0.001 -5.3e-4,0.006 -0.004,0.0115 -0.0163,0.0257 -0.0245,0.0404 -0.0227,0.0404 0.001,0 0.0174,-0.0251 0.0361,-0.0559 0.0352,-0.0578 0.0497,-0.0734 0.0222,-0.0239 -0.0231,0.0417 -0.0681,0.11005 -0.0706,0.10752 -10e-4,-0.001 0.001,-0.007 0.005,-0.0129 0.004,-0.006 0.006,-0.0107 0.005,-0.0107 -0.001,0 -0.0147,0.0205 -0.0299,0.0455 -0.0261,0.0429 -0.0308,0.0494 -0.0308,0.0427 z"
       id="path9147"
       inkscape:connector-curvature="0"
       inkscape:export-xdpi="100"
       inkscape:export-ydpi="100"
       inkscape:export-filename="/home/damian/path8742.png" />
    <path
       style="opacity:1;fill:#333333;fill-opacity:1;fill-rule:evenodd;stroke:#4d4d4d;stroke-width:0.0015625;stroke-linecap:square;stroke-linejoin:round;stroke-miterlimit:4;stroke-dasharray:none;stroke-dashoffset:0;stroke-opacity:1;paint-order:fill markers stroke"
       d="m 158.66078,214.59683 c 0,-0.0101 0.0598,-0.12584 0.0907,-0.17541 0.0454,-0.0729 0.14679,-0.20311 0.15816,-0.20311 0.0251,0 -0.0901,0.20293 -0.17561,0.3092 -0.0528,0.0657 -0.0733,0.085 -0.0733,0.0693 z m 0.0673,-0.0911 c 0.008,-0.0125 0.0152,-0.0217 0.0164,-0.0204 0.003,0.003 0.0724,-0.10044 0.0979,-0.14647 0.021,-0.0379 0.0271,-0.0576 0.008,-0.0266 -0.005,0.009 -0.0111,0.0163 -0.0129,0.0171 -0.002,7.9e-4 -0.003,0.004 -0.003,0.007 0,0.003 -0.002,0.005 -0.004,0.004 -0.007,-0.004 -0.12051,0.16953 -0.12051,0.18501 0,0.006 0.004,10e-4 0.0177,-0.0199 z"
       id="path9149"
       inkscape:connector-curvature="0"
       inkscape:export-xdpi="100"
       inkscape:export-ydpi="100"
       inkscape:export-filename="/home/damian/path8742.png" />
    <path
       style="opacity:1;fill:#333333;fill-opacity:1;fill-rule:evenodd;stroke:#4d4d4d;stroke-width:0.0015625;stroke-linecap:square;stroke-linejoin:round;stroke-miterlimit:4;stroke-dasharray:none;stroke-dashoffset:0;stroke-opacity:1;paint-order:fill markers stroke"
       d="m 158.56048,214.77952 c 0.005,-0.0188 0.0254,-0.0606 0.0462,-0.0931 0.0219,-0.0341 0.0383,-0.0528 0.0317,-0.0361 -0.002,0.005 -0.006,0.0166 -0.009,0.0269 -0.009,0.0284 -0.0595,0.11107 -0.0685,0.11149 -0.002,7e-5 -0.002,-0.004 -5.3e-4,-0.009 z m 0.0415,-0.0633 c -0.001,-0.001 -0.005,0.002 -0.007,0.007 -0.005,0.009 -0.005,0.009 0.003,0.003 0.004,-0.004 0.006,-0.008 0.005,-0.01 z"
       id="path9151"
       inkscape:connector-curvature="0"
       inkscape:export-xdpi="100"
       inkscape:export-ydpi="100"
       inkscape:export-filename="/home/damian/path8742.png" />
    <path
       style="opacity:1;fill:#333333;fill-opacity:1;fill-rule:evenodd;stroke:#4d4d4d;stroke-width:0.0015625;stroke-linecap:square;stroke-linejoin:round;stroke-miterlimit:4;stroke-dasharray:none;stroke-dashoffset:0;stroke-opacity:1;paint-order:fill markers stroke"
       d="m 158.54119,214.8139 c -0.0207,-0.0131 0.0561,-0.1662 0.0968,-0.19285 0.0299,-0.0196 0.0302,0.018 7.9e-4,0.0791 -0.0241,0.0498 -0.0575,0.0985 -0.075,0.1093 -0.0154,0.01 -0.0147,0.009 -0.0225,0.004 z m 0.0427,-0.0512 c 0.0246,-0.0345 0.0575,-0.10058 0.0549,-0.1104 -0.001,-0.004 1e-4,-0.009 0.003,-0.01 0.003,-0.001 0.003,-0.002 8e-5,-0.002 -0.0109,-7.9e-4 -0.0842,0.12439 -0.0842,0.14381 0,0.0105 0.009,0.003 0.0265,-0.0214 z"
       id="path9153"
       inkscape:connector-curvature="0"
       inkscape:export-xdpi="100"
       inkscape:export-ydpi="100"
       inkscape:export-filename="/home/damian/path8742.png" />
    <path
       style="opacity:1;fill:#333333;fill-opacity:1;fill-rule:evenodd;stroke:#4d4d4d;stroke-width:0.0015625;stroke-linecap:square;stroke-linejoin:round;stroke-miterlimit:4;stroke-dasharray:none;stroke-dashoffset:0;stroke-opacity:1;paint-order:fill markers stroke"
       d="m 158.02555,215.6506 c -0.0123,-0.032 0.071,-0.18409 0.10584,-0.19319 0.0232,-0.006 0.0209,0.0262 -0.006,0.0825 -0.0391,0.0826 -0.0894,0.13826 -0.10001,0.11066 z m 0.0515,-0.0565 c 0.007,-0.0106 0.0132,-0.0212 0.0132,-0.0236 0,-0.002 0.002,-0.004 0.003,-0.004 0.007,0 0.0379,-0.0702 0.0379,-0.0858 0,-0.005 -0.001,-0.005 -0.007,-8e-4 -0.009,0.007 -0.0436,0.0562 -0.0446,0.0627 -5.3e-4,0.003 -0.008,0.0173 -0.0159,0.032 -0.008,0.0148 -0.016,0.0315 -0.017,0.0372 -0.001,0.006 -0.003,0.014 -0.005,0.0186 -0.004,0.0116 0.0176,-0.0112 0.0346,-0.036 z"
       id="path9155"
       inkscape:connector-curvature="0"
       inkscape:export-xdpi="100"
       inkscape:export-ydpi="100"
       inkscape:export-filename="/home/damian/path8742.png" />
    <path
       style="opacity:1;fill:#333333;fill-opacity:1;fill-rule:evenodd;stroke:#4d4d4d;stroke-width:0.00590551;stroke-linecap:square;stroke-linejoin:round;stroke-miterlimit:4;stroke-dasharray:none;stroke-dashoffset:0;stroke-opacity:1;paint-order:fill markers stroke"
       d=""
       id="path9157"
       inkscape:connector-curvature="0"
       transform="matrix(0.26458333,0,0,0.26458333,9.0122271,146.50417)"
       inkscape:export-xdpi="100"
       inkscape:export-ydpi="100"
       inkscape:export-filename="/home/damian/path8742.png" />
    <path
       style="opacity:1;fill:#333333;fill-opacity:1;fill-rule:evenodd;stroke:#4d4d4d;stroke-width:0.00590551;stroke-linecap:square;stroke-linejoin:round;stroke-miterlimit:4;stroke-dasharray:none;stroke-dashoffset:0;stroke-opacity:1;paint-order:fill markers stroke"
       d=""
       id="path9159"
       inkscape:connector-curvature="0"
       transform="matrix(0.26458333,0,0,0.26458333,9.0122271,146.50417)"
       inkscape:export-xdpi="100"
       inkscape:export-ydpi="100"
       inkscape:export-filename="/home/damian/path8742.png" />
    <path
       style="opacity:1;fill:#333333;fill-opacity:1;fill-rule:evenodd;stroke:#4d4d4d;stroke-width:0.00590551;stroke-linecap:square;stroke-linejoin:round;stroke-miterlimit:4;stroke-dasharray:none;stroke-dashoffset:0;stroke-opacity:1;paint-order:fill markers stroke"
       d=""
       id="path9161"
       inkscape:connector-curvature="0"
       transform="matrix(0.26458333,0,0,0.26458333,9.0122271,146.50417)"
       inkscape:export-xdpi="100"
       inkscape:export-ydpi="100"
       inkscape:export-filename="/home/damian/path8742.png" />
    <path
       style="opacity:1;fill:#333333;fill-opacity:1;fill-rule:evenodd;stroke:#4d4d4d;stroke-width:0.00590551;stroke-linecap:square;stroke-linejoin:round;stroke-miterlimit:4;stroke-dasharray:none;stroke-dashoffset:0;stroke-opacity:1;paint-order:fill markers stroke"
       d=""
       id="path9163"
       inkscape:connector-curvature="0"
       transform="matrix(0.26458333,0,0,0.26458333,9.0122271,146.50417)"
       inkscape:export-xdpi="100"
       inkscape:export-ydpi="100"
       inkscape:export-filename="/home/damian/path8742.png" />
    <path
       style="opacity:1;fill:#333333;fill-opacity:1;fill-rule:evenodd;stroke:#4d4d4d;stroke-width:0.0015625;stroke-linecap:square;stroke-linejoin:round;stroke-miterlimit:4;stroke-dasharray:none;stroke-dashoffset:0;stroke-opacity:1;paint-order:fill markers stroke"
       d="m 156.92858,217.43135 c 0,-0.0172 0.0738,-0.137 0.0775,-0.12585 7.9e-4,0.003 -0.001,0.009 -0.005,0.0138 -0.003,0.005 -0.005,0.0117 -0.004,0.0153 0.002,0.004 7.9e-4,0.005 -0.002,0.004 -0.003,-0.002 -0.0151,0.0147 -0.0303,0.0396 -0.0331,0.0543 -0.0369,0.0598 -0.0369,0.0535 z"
       id="path9165"
       inkscape:connector-curvature="0"
       inkscape:export-xdpi="100"
       inkscape:export-ydpi="100"
       inkscape:export-filename="/home/damian/path8742.png" />
    <path
       style="opacity:1;fill:#333333;fill-opacity:1;fill-rule:evenodd;stroke:#4d4d4d;stroke-width:0.0015625;stroke-linecap:square;stroke-linejoin:round;stroke-miterlimit:4;stroke-dasharray:none;stroke-dashoffset:0;stroke-opacity:1;paint-order:fill markers stroke"
       d="m 156.98324,217.35676 c -0.004,-0.003 -0.003,-0.006 0.003,-0.014 0.009,-0.0111 0.0114,-0.022 0.004,-0.0176 -0.008,0.005 -0.004,-0.005 0.005,-0.0138 0.0117,-0.011 0.0169,-0.0116 0.0114,-0.001 -0.002,0.004 -0.003,0.009 -0.002,0.0103 0.001,0.001 2.7e-4,0.003 -0.002,0.003 -0.003,0 -0.004,0.002 -0.003,0.003 0.001,0.002 -0.001,0.0101 -0.005,0.0186 -0.005,0.0106 -0.009,0.0143 -0.0122,0.0119 z"
       id="path9167"
       inkscape:connector-curvature="0"
       inkscape:export-xdpi="100"
       inkscape:export-ydpi="100"
       inkscape:export-filename="/home/damian/path8742.png" />
    <path
       style="opacity:1;fill:#333333;fill-opacity:1;fill-rule:evenodd;stroke:#4d4d4d;stroke-width:0.0015625;stroke-linecap:square;stroke-linejoin:round;stroke-miterlimit:4;stroke-dasharray:none;stroke-dashoffset:0;stroke-opacity:1;paint-order:fill markers stroke"
       d="m 156.90322,217.47435 c -0.0144,-0.0316 0.0797,-0.19612 0.10976,-0.19182 0.007,0.001 0.009,0.004 0.008,0.0222 -2.4e-4,0.0366 -0.0505,0.12999 -0.0883,0.16413 -0.02,0.018 -0.0239,0.0187 -0.0299,0.005 z m 0.0546,-0.0612 c 0.0241,-0.0376 0.0458,-0.0816 0.0427,-0.0867 -0.001,-0.002 -5.3e-4,-0.003 0.001,-0.003 0.002,0 0.004,-0.005 0.004,-0.0108 7.9e-4,-0.01 1.5e-4,-0.0102 -0.006,-0.005 -0.0202,0.0166 -0.0744,0.11444 -0.0773,0.13962 -0.002,0.0126 -0.001,0.0129 0.006,0.006 0.004,-0.004 0.0172,-0.0217 0.0287,-0.0396 z"
       id="path9169"
       inkscape:connector-curvature="0"
       inkscape:export-xdpi="100"
       inkscape:export-ydpi="100"
       inkscape:export-filename="/home/damian/path8742.png" />
    <path
       style="fill:none;fill-rule:evenodd;stroke:#000000;stroke-width:0.26499999;stroke-linecap:butt;stroke-linejoin:miter;stroke-miterlimit:4;stroke-dasharray:none;stroke-opacity:1"
       d="m 184.82931,191.76617 h -75.0109"
       id="path9181"
       inkscape:connector-curvature="0"
       inkscape:export-xdpi="100"
       inkscape:export-ydpi="100"
       inkscape:export-filename="/home/damian/path8742.png" />
    <path
       style="fill:none;fill-rule:evenodd;stroke:#000000;stroke-width:0.26458332px;stroke-linecap:butt;stroke-linejoin:miter;stroke-opacity:1"
       d="m 184.82931,191.76617 -57.2708,57.2708"
       id="path9183"
       inkscape:connector-curvature="0"
       inkscape:export-xdpi="100"
       inkscape:export-ydpi="100"
       inkscape:export-filename="/home/damian/path8742.png" />
    <path
       style="opacity:0.96495325;fill:#ececec;fill-opacity:0.94585984;fill-rule:evenodd;stroke:#5e5e5e;stroke-width:1.16499996;stroke-linecap:butt;stroke-linejoin:miter;stroke-miterlimit:4;stroke-dasharray:none;stroke-opacity:1"
       d="m 83.09556,213.91712 c 0.122068,-3.77966 1.434233,-7.51222 3.704166,-10.53681 2.751832,-3.6667 6.891118,-6.24509 11.377083,-7.19027 4.696341,-0.9895 9.688801,-0.20951 14.022921,1.85208 5.03816,2.39648 9.21134,6.49205 11.90625,11.37709 3.08375,5.58989 4.23895,12.27653 2.91041,18.52083 -0.91807,4.31502 -2.97107,8.33147 -5.55625,11.90625 -2.01809,2.79062 -4.38157,5.35149 -7.14375,7.40833 -1.06154,0.79047 -2.17962,1.50519 -3.21045,2.33531 -1.03083,0.83013 -1.98352,1.7907 -2.61038,2.95636 -1.05945,1.97009 -1.1059,4.3545 -2.11667,6.35 -1.07325,2.11885 -3.15811,3.59629 -5.40336,4.37103 -2.245251,0.77474 -4.656898,0.91741 -7.032054,0.92064 -1.485466,0.002 -2.985666,-0.0498 -4.42409,-0.42066 -1.438424,-0.37087 -2.824603,-1.08603 -3.777993,-2.22518 -0.72635,-0.86787 -1.176652,-1.96335 -1.270636,-3.09116 -0.09398,-1.12781 0.168786,-2.28271 0.741469,-3.25884"
       id="path9200"
       inkscape:connector-curvature="0"
       inkscape:path-effect="#path-effect9202"
       inkscape:original-d="m 83.09556,213.91712 c 1.234987,-3.51253 2.469708,-7.02481 3.704166,-10.53681 1.234459,-3.51201 7.584988,-4.79378 11.377083,-7.19027 3.792091,-2.39649 9.348871,1.23446 14.022921,1.85208 4.67404,0.61763 7.93776,7.58446 11.90625,11.37709 3.96848,3.79262 1.94054,12.34696 2.91041,18.52083 0.96988,6.17388 -3.7039,7.93724 -5.55625,11.90625 -1.85235,3.96901 -4.76223,4.93863 -7.14375,7.40833 -2.38151,2.46971 -3.88029,3.52752 -5.82083,5.29167 -1.94054,1.76415 -1.41085,4.23307 -2.11667,6.35 -0.70582,2.11693 -8.29001,3.52751 -12.435414,5.29167 -4.145404,1.76415 -5.467792,-1.76416 -8.202083,-2.64584 -2.734292,-0.88168 -0.352513,-4.23359 -0.529167,-6.35"
       transform="translate(8.969256,-2.11667)"
       inkscape:export-xdpi="100"
       inkscape:export-ydpi="100"
       inkscape:export-filename="/home/damian/path8742.png" />
    <path
       style="opacity:0.75;fill:#ffd700;fill-opacity:0;fill-rule:evenodd;stroke:#cccccc;stroke-width:1.16499996;stroke-linecap:butt;stroke-linejoin:miter;stroke-miterlimit:4;stroke-dasharray:none;stroke-opacity:1"
       d="m 88.916393,233.49629 c 0.316047,0.59068 0.773362,1.10516 1.322916,1.48828 0.302989,0.21123 0.63189,0.38215 0.945484,0.57729 0.313594,0.19514 0.616429,0.41891 0.840454,0.71256 0.245096,0.32127 0.385876,0.71788 0.415709,1.12087 0.02983,0.40298 -0.04932,0.81141 -0.211404,1.18157 -0.324168,0.74032 -0.967829,1.3087 -1.692586,1.66631 -0.442694,0.21843 -0.916509,0.36539 -1.375675,0.54666 -0.459166,0.18126 -0.91264,0.40278 -1.270159,0.74318 -0.308649,0.29387 -0.536085,0.67036 -0.662653,1.0773 -0.126568,0.40695 -0.153014,0.84341 -0.08692,1.26442 0.132181,0.84204 0.635356,1.60457 1.311816,2.12312 0.77339,0.59285 1.783931,0.87864 2.748729,0.74164 0.964799,-0.137 1.867476,-0.70508 2.377573,-1.53539 0.35166,-0.57241 0.512012,-1.2379 0.692165,-1.8851 0.180153,-0.6472 0.395006,-1.30641 0.829189,-1.81906 0.295951,-0.34943 0.682907,-0.61494 1.099714,-0.80458 0.416806,-0.18964 0.863763,-0.30587 1.314609,-0.38605 1.823854,-0.32434 3.728329,-0.0707 5.523179,-0.52917 1.17531,-0.3002 2.26947,-0.90491 3.16001,-1.72856 0.89055,-0.82366 1.57696,-1.86373 1.99936,-3.00086 0.46381,-1.24863 0.60894,-2.61461 0.41444,-3.93232 -0.19449,-1.31772 -0.72852,-2.58429 -1.53892,-3.64138 -0.96696,-1.26131 -2.29263,-2.1978 -3.65169,-3.02175 -1.35905,-0.82396 -2.7779,-1.55925 -4.045676,-2.51772 -0.801273,-0.60578 -1.548693,-1.30451 -2.458004,-1.73132 -0.454655,-0.2134 -0.948449,-0.35518 -1.450621,-0.3639 -0.502171,-0.009 -1.013354,0.1214 -1.423403,0.41142 -0.304607,0.21544 -0.546845,0.51388 -0.71366,0.84761 -0.166815,0.33373 -0.259615,0.70202 -0.291673,1.07373 -0.06412,0.74344 0.111221,1.48783 0.350523,2.19461 0.579316,1.71102 1.54585,3.28969 2.80633,4.58367"
       id="path9204"
       inkscape:connector-curvature="0"
       inkscape:path-effect="#path-effect9206"
       inkscape:original-d="m 88.916393,233.49629 c 0.441237,0.49583 0.882208,0.99192 1.322916,1.48828 0.440709,0.49636 1.19089,0.85963 1.785938,1.28985 0.595048,0.43021 -0.991923,2.64556 -1.488281,3.96875 -0.496359,1.32318 -1.763626,0.85963 -2.645834,1.28984 -0.882208,0.43021 0.375092,2.9763 0.56224,4.46484 0.187148,1.48855 3.4178,-0.52943 5.126302,-0.79375 1.708502,-0.26432 1.0145,-2.46971 1.521354,-3.70416 0.506854,-1.23446 1.609812,-0.79402 2.414323,-1.19063 0.804511,-0.39661 3.682379,-0.35304 5.523179,-0.52917 1.84079,-0.17612 3.43985,-3.15321 5.15937,-4.72942 1.71953,-1.57621 -0.74938,-5.0494 -1.12448,-7.5737 -0.37509,-2.5243 -5.13131,-3.69325 -7.697366,-5.53947 -2.566056,-1.84623 -3.55442,-1.1228 -5.332028,-1.6838 -1.777606,-0.561 -0.436274,2.7437 -0.65481,4.11595 -0.218535,1.37225 1.871152,3.05551 2.80633,4.58367"
       transform="translate(8.969256,-2.1166667)"
       inkscape:export-xdpi="100"
       inkscape:export-ydpi="100"
       inkscape:export-filename="/home/damian/path8742.png" />
    <path
       style="opacity:0.5;fill:#ececec;fill-opacity:0.94585984;fill-rule:evenodd;stroke:#5e5e5e;stroke-width:1.16499996;stroke-linecap:butt;stroke-linejoin:miter;stroke-miterlimit:4;stroke-dasharray:none;stroke-opacity:1"
       d="m 94.044026,220.1602 c -1.8669,-1.72911 -2.807235,-4.40545 -2.432154,-6.92228 0.375407,-2.51902 1.982884,-4.7421 4.022408,-6.26747 1.753672,-1.31158 3.847767,-2.16927 6.02094,-2.43929 2.17317,-0.27003 4.42021,0.0512 6.42046,0.94258 3.11255,1.38711 5.49454,4.06736 7.20291,7.01583 1.93356,3.33713 3.11895,7.10307 3.46114,10.94468 0.33039,3.70919 -0.13292,7.51782 -1.59025,10.94469 -1.49413,3.51342 -4.02998,6.57619 -7.20292,8.69962"
       id="path9208"
       inkscape:connector-curvature="0"
       inkscape:path-effect="#path-effect9210"
       inkscape:original-d="m 94.044026,220.1602 c -0.810454,-2.30769 -1.621171,-4.61512 -2.432154,-6.92228 -0.810982,-2.30716 2.68187,-4.17858 4.022408,-6.26747 1.340538,-2.08889 8.29453,-0.99807 12.4414,-1.49671 4.14686,-0.49864 4.8022,4.67696 7.20291,7.01583 2.40071,2.33887 2.30769,7.29619 3.46114,10.94468 1.15345,3.6485 -1.0599,7.2962 -1.59025,10.94469 -0.53035,3.6485 -4.80168,5.79949 -7.20292,8.69962"
       transform="translate(8.969256,-2.1166667)"
       inkscape:export-xdpi="100"
       inkscape:export-ydpi="100"
       inkscape:export-filename="/home/damian/path8742.png" />
    <path
       style="opacity:1;fill:#ececec;fill-opacity:0.94585984;fill-rule:evenodd;stroke:#5e5e5e;stroke-width:0;stroke-linecap:round;stroke-linejoin:round;stroke-miterlimit:4;stroke-dasharray:none;stroke-dashoffset:0;stroke-opacity:1;paint-order:fill markers stroke"
       d="m 27.306344,317.49794 c -6.21814,-2.1729 -9.45998,-9.80384 -6.02183,-14.17473 0.771535,-0.98085 3.555768,-2.64205 6.187184,-3.69155 2.631417,-1.0495 5.821475,-2.69482 7.089018,-3.65626 4.80884,-3.64756 6.54946,-10.98025 3.711409,-15.63501 -0.771816,-1.26588 -3.126107,-3.40366 -5.231758,-4.75063 -2.105652,-1.34697 -4.490977,-3.29129 -5.300724,-4.32071 l -1.472266,-1.87169 11.833192,-7.27646 c 6.508256,-4.00206 12.615844,-7.90082 13.572419,-8.66391 1.685432,-1.34452 1.701202,-1.43953 0.509866,-3.07179 -7.074217,-9.6924 -9.673714,-15.48112 -9.673714,-21.542 0,-5.05554 2.000631,-7.36596 6.378306,-7.36596 3.535998,0 4.393436,0.42807 12.00647,5.99413 3.305725,2.41689 9.618418,6.54905 14.028207,9.18259 10.287488,6.14372 16.203889,11.61799 18.92531,17.51102 1.84941,4.00475 2.047831,5.15621 2.043758,11.85999 -0.0042,6.75581 -0.189547,7.80284 -2.058699,11.62325 -2.683329,5.48454 -7.182874,9.90015 -12.736678,12.49908 -3.953477,1.85006 -5.665531,2.17494 -14.637613,2.77762 -17.526639,1.1773 -21.053401,3.34203 -24.704776,15.16381 -1.705596,5.52208 -4.134242,8.56831 -7.598239,9.53041 -3.120756,0.86676 -4.069667,0.84997 -6.848842,-0.1212 z"
       id="path9250"
       inkscape:connector-curvature="0"
       transform="matrix(0.26458333,0,0,0.26458333,91.48262,159.83904)"
       inkscape:export-xdpi="100"
       inkscape:export-ydpi="100"
       inkscape:export-filename="/home/damian/path8742.png" />
    <path
       style="opacity:0.9;fill:#000000;fill-rule:evenodd;stroke:#000000;stroke-width:1;stroke-linecap:round;stroke-linejoin:miter;stroke-miterlimit:4;stroke-dasharray:none;stroke-opacity:1"
       d="m 205.41362,177.55142 4.09989,10.1615"
       id="path4965"
       inkscape:connector-curvature="0" />
    <path
       style="opacity:0.75;fill:#333333;fill-opacity:0.94585984;fill-rule:evenodd;stroke:#333333;stroke-width:0.94488192;stroke-linecap:round;stroke-linejoin:round;stroke-miterlimit:4;stroke-dasharray:none;stroke-dashoffset:0;stroke-opacity:1;paint-order:fill markers stroke"
       d="m 354.30503,120.23814 c -0.88232,-0.55844 0.37831,-1.37648 5.76004,-3.73774 27.80521,-12.19968 49.40782,-26.04191 66.212,-42.426434 l 3.63319,-3.542456 6.5,16.11046 c 3.575,8.860753 6.53252,16.20087 6.57227,16.31136 0.0397,0.11049 -3.56026,0.26312 -8,0.33917 -20.97834,0.35937 -37.16932,3.7221 -71.981,14.94987 -6.7441,2.17517 -7.96895,2.45626 -8.6965,1.99577 z"
       id="path4967"
       inkscape:connector-curvature="0"
       transform="matrix(0.26458333,0,0,0.26458333,91.48262,159.83904)" />
    <path
       style="opacity:0.75;fill:none;fill-rule:evenodd;stroke:#000000;stroke-width:0.56500006;stroke-linecap:round;stroke-linejoin:miter;stroke-miterlimit:4;stroke-dasharray:none;stroke-opacity:1"
       d="m 243.43618,206.67041 28.01474,37.7586"
       id="path4890-4"
       inkscape:connector-curvature="0" />
    <path
       style="opacity:0.75;fill:none;fill-rule:evenodd;stroke:#000000;stroke-width:0.66500002;stroke-linecap:round;stroke-linejoin:miter;stroke-miterlimit:4;stroke-dasharray:none;stroke-opacity:1"
       d="m 252.78647,212.27662 14.14781,18.97267"
       id="path4907-8-1"
       inkscape:connector-curvature="0" />
    <path
       style="opacity:0.75;fill:none;fill-rule:evenodd;stroke:#000000;stroke-width:0.66500002;stroke-linecap:round;stroke-linejoin:miter;stroke-miterlimit:4;stroke-dasharray:none;stroke-opacity:1"
       d="m 246.02161,217.16765 14.14781,18.97266"
       id="path4907-8-1-0"
       inkscape:connector-curvature="0" />
    <path
       style="opacity:0.47000002;fill:#666666;fill-opacity:0.94585984;fill-rule:evenodd;stroke:#808080;stroke-width:0.01670331;stroke-linecap:round;stroke-linejoin:round;stroke-miterlimit:4;stroke-dasharray:none;stroke-dashoffset:0;stroke-opacity:1;paint-order:fill markers stroke"
       d="m 553.95506,87.95919 c -0.003,-0.07365 -0.0232,-0.09671 -0.0701,-0.07873 -0.0365,0.01399 -0.0663,0.01951 -0.0663,0.01227 0,-0.0072 0.0888,-0.168953 0.19729,-0.359359 0.21888,-0.384089 0.53698,-1.089995 0.69426,-1.54065 0.0738,-0.211538 0.12421,-0.293759 0.18001,-0.293759 0.0426,0 0.0776,0.01492 0.0777,0.03315 1.2e-4,0.01823 -0.11057,0.311569 -0.246,0.651864 -0.32204,0.809221 -0.76182,1.712562 -0.76687,1.575213 z"
       id="path5039"
       inkscape:connector-curvature="0"
       transform="matrix(0.26458333,0,0,0.26458333,91.48262,159.83904)" />
    <path
       style="opacity:0.47000002;fill:none;fill-opacity:0.94585984;fill-rule:evenodd;stroke:none;stroke-width:0.00835165;stroke-linecap:round;stroke-linejoin:round;stroke-miterlimit:4;stroke-dasharray:none;stroke-dashoffset:0;stroke-opacity:1;paint-order:fill markers stroke"
       d="m 554.80992,85.763958 c -4e-4,-0.01447 0.009,-0.03219 0.0204,-0.03938 0.0116,-0.0072 0.0158,-0.02686 0.009,-0.04372 -0.006,-0.01686 0.0229,-0.138355 0.0652,-0.269982 0.66953,-2.081311 1.03022,-4.933156 1.03079,-8.150079 2.3e-4,-1.322723 -0.0744,-3.134029 -0.17885,-4.33817 -0.0221,-0.254274 -0.41865,-3.96456 -0.38065,-3.993345 0.0695,-0.05267 0.5328,3.650113 0.54646,3.718753 0.0679,0.341111 0.44723,3.334708 0.63352,4.999466 0.13085,1.169382 0.13202,1.015047 -0.0151,1.977689 -0.30725,2.010995 -0.77372,3.916391 -1.38078,5.640043 -0.15169,0.430701 -0.15945,0.446739 -0.21016,0.434013 -0.0386,-0.0097 -0.0642,6.48e-4 -0.0961,0.03891 -0.0239,0.02867 -0.0437,0.04028 -0.0442,0.02581 z m 1.3129,-5.395041 c 0.13619,-0.791547 0.15551,-1.018308 0.15372,-1.804389 -10e-4,-0.550307 -0.0122,-0.814907 -0.0493,-1.193242 -0.10634,-1.082824 -0.10177,-1.103894 -0.11751,0.541378 -0.0125,1.30528 -0.0333,2.084398 -0.0737,2.762136 -0.006,0.103304 -0.007,0.177882 -8.6e-4,0.165728 0.006,-0.01215 0.0451,-0.224378 0.0877,-0.471611 z"
       id="path5057"
       inkscape:connector-curvature="0"
       transform="matrix(0.26458333,0,0,0.26458333,91.48262,159.83904)"
       sodipodi:nodetypes="ccccccccccscccccccccccc" />
    <path
       style="opacity:0.75400002;fill:none;fill-rule:evenodd;stroke:#000000;stroke-width:0.25311342px;stroke-linecap:round;stroke-linejoin:miter;stroke-opacity:1"
       d="m 227.86196,160.59407 c -0.0574,8.24046 2.77653,15.37589 9.11392,23.98941"
       id="path5061"
       inkscape:connector-curvature="0"
       sodipodi:nodetypes="cc" />
    <path
       style="opacity:0.75400002;fill:#4d4d4d;fill-opacity:0.94585984;fill-rule:evenodd;stroke:#666666;stroke-width:0.06681324;stroke-linecap:round;stroke-linejoin:round;stroke-miterlimit:4;stroke-dasharray:none;stroke-dashoffset:0;stroke-opacity:1;paint-order:fill markers stroke"
       d="M 548.12772,90.103214 C 530.02378,64.830409 520.51462,43.624442 517.23949,21.220674 516.59193,16.791045 515.99028,9.2391299 515.98468,5.470364 l -0.002,-1.0778449 1.98874,-0.1160227 c 1.0938,-0.063813 3.29444,-0.1685227 4.89031,-0.2326892 l 2.90157,-0.1166665 0.36879,0.4470835 c 2.30499,2.7942705 4.52305,5.5962963 4.52305,5.7138578 0,0.08072 -0.65628,-0.4900758 -1.4584,-1.2684341 -2.54742,-2.471944 -4.62569,-3.6304431 -6.51533,-3.6318708 -1.18787,-8.975e-4 -1.81925,0.2969089 -2.70271,1.2747998 -4.45753,4.9339471 -1.73322,24.0972191 6.27681,44.1521701 5.36543,13.433574 12.03567,24.750971 17.94544,30.448012 2.77874,2.67872 4.66917,3.741917 6.63662,3.732507 1.15429,-0.0055 1.76559,-0.271479 2.55852,-1.113143 1.56737,-1.6637 2.18486,-4.261681 2.21244,-9.308414 0.009,-1.718877 0.046,-3.005907 0.0814,-2.860066 0.0353,0.14584 0.25971,1.81638 0.4986,3.71231 0.41113,3.262951 0.42027,3.527436 0.17102,4.949748 -0.41587,2.373144 -1.20507,5.281744 -1.48691,5.480077 -0.1827,0.128566 -0.91504,1.79495 -0.97112,2.209709 -0.09,0.665277 -2.85183,4.93526 -3.41887,5.285709 -0.0655,0.0405 -1.1254,-1.331095 -2.35528,-3.047982 z"
       id="path5073"
       inkscape:connector-curvature="0"
       transform="matrix(0.26458333,0,0,0.26458333,91.48262,159.83904)" />
  </g>
</svg>
